<svg xmlns="http://www.w3.org/2000/svg" xmlns:v="https://svgstorm.com"
viewBox = "0 0 1000 1000"
width="1000"
height="1000">
<g fill="None" fill-opacity="0.0" stroke="#000000" stroke-opacity="0.00" stroke-width="0.3"><path d="
M 0.00 1000.00 
L 1000.00 1000.00
L 1000.00 0.00
L 0.00 0.00
L 0.00 1000.00
M 357.00 103.00 
C 344.79 129.11 335.59 159.75 331.00 188.00
C 330.50 191.07 330.35 193.91 330.00 197.00
C 329.28 203.41 328.25 209.52 328.00 216.00
C 327.86 219.68 327.29 224.03 327.00 227.00
C 326.24 234.82 326.24 244.18 327.00 252.00
C 328.73 253.67 328.00 257.55 328.00 260.00
C 328.00 263.00 328.00 266.00 328.00 269.00
C 328.36 272.74 329.47 277.72 330.00 282.00
C 334.93 321.80 351.76 367.40 376.00 400.00
C 377.93 402.59 380.21 405.10 382.00 408.00
C 387.81 417.38 395.23 424.68 401.00 434.00
C 409.94 444.46 422.19 456.58 433.00 466.00
C 440.79 472.79 449.60 479.11 457.00 486.00
C 460.60 489.36 460.03 490.28 456.00 490.00
C 436.51 488.66 416.21 477.37 397.98 472.03 C 379.74 466.68 360.30 458.24 343.92 449.08 C 327.55 439.92 310.82 431.60 298.00 418.00
C 288.52 410.06 280.11 401.22 272.00 392.00
C 250.15 370.79 236.73 334.05 233.00 304.00
C 232.05 300.16 231.09 296.54 231.00 292.00
C 230.95 289.36 231.25 286.62 231.00 284.00
C 229.83 271.93 229.80 258.45 231.00 246.00
C 231.38 242.07 232.07 238.77 233.00 235.00
C 242.12 198.17 266.00 157.29 299.00 136.00
C 301.74 133.75 304.30 130.97 307.00 129.00
C 312.23 125.19 317.17 119.78 322.75 116.75 C 328.32 113.71 334.28 107.29 339.70 105.70 C 345.11 104.10 352.49 94.49 358.00 96.00
C 361.86 97.06 357.90 101.07 357.00 103.00
M 769.00 252.00 
C 769.94 261.70 770.98 273.59 770.00 284.00
C 769.73 286.83 769.09 289.87 769.00 293.00
C 768.94 295.26 768.28 297.40 768.00 299.00
C 767.52 301.75 767.52 304.28 767.00 307.00
C 758.02 354.41 734.54 389.77 698.00 421.00
C 695.57 423.08 693.67 425.15 691.00 427.00
C 676.75 436.87 663.45 446.15 647.32 453.32 C 631.19 460.49 615.07 469.33 597.77 473.77 C 580.47 478.21 562.30 488.74 544.00 490.00
C 539.89 490.28 539.48 489.27 543.00 486.00
C 550.04 479.44 559.63 470.77 568.00 466.00
C 575.51 459.83 584.87 450.46 591.00 443.00
C 600.70 425.97 616.16 414.70 625.32 397.32 C 634.48 379.94 646.09 363.98 652.78 344.78 C 659.46 325.57 667.42 302.80 670.00 282.00
C 670.53 277.76 671.64 272.68 672.00 269.00
C 672.00 263.23 671.92 257.04 673.00 252.00
C 674.17 239.90 672.24 227.90 672.00 216.00
C 671.36 184.15 661.39 152.24 651.00 123.00
C 650.42 121.37 649.74 118.88 649.00 117.00
C 645.02 111.08 636.76 92.63 647.08 97.92 C 657.39 103.22 662.70 106.90 671.25 112.75 C 679.80 118.61 687.06 122.97 694.70 129.30 C 702.34 135.64 708.17 141.13 715.25 147.75 C 722.32 154.38 727.82 161.09 733.70 168.30 C 739.59 175.50 744.58 183.76 749.92 192.08 C 755.26 200.40 758.37 209.25 761.98 219.02 C 765.58 228.80 769.00 240.85 769.00 252.00
M 825.00 222.00 
C 836.21 239.74 838.85 258.25 845.99 278.01 C 853.14 297.77 855.98 322.47 858.00 344.00
C 858.50 349.34 858.50 355.66 858.00 361.00
C 853.77 406.08 837.82 446.98 800.00 474.00
C 796.78 476.30 793.50 478.92 790.00 481.00
C 766.70 494.83 741.78 503.29 715.00 508.00
C 711.65 508.59 708.44 508.51 705.00 509.00
C 703.15 509.26 700.46 509.90 698.00 510.00
C 692.82 510.21 688.22 510.72 683.00 511.00
C 647.89 512.91 611.24 528.53 581.31 544.30 C 551.37 560.08 526.51 582.67 518.00 616.00
C 517.11 619.49 516.21 622.21 516.00 626.00
C 515.43 636.45 515.43 647.55 516.00 658.00
C 516.26 662.88 518.04 666.45 519.00 671.00
C 519.58 673.77 519.15 676.30 520.00 679.00
C 532.75 702.89 542.51 724.47 572.00 731.00
C 576.78 731.49 582.20 731.26 587.00 731.00
C 597.80 730.41 607.48 724.99 618.00 724.00
C 621.53 723.67 625.24 724.67 628.00 725.00
C 636.93 725.18 653.65 731.31 644.25 738.25 C 634.86 745.20 630.81 750.23 622.75 756.75 C 614.69 763.28 610.04 769.86 603.10 776.10 C 596.16 782.34 590.50 790.10 584.23 797.23 C 577.96 804.36 572.72 811.17 566.75 818.75 C 560.78 826.33 556.48 834.49 550.00 842.00
C 548.18 845.03 545.99 848.14 544.00 851.00
C 539.75 859.99 535.12 867.28 529.70 876.69 C 524.27 886.11 520.76 893.72 516.01 904.01 C 511.25 914.30 508.12 919.64 503.69 931.69 C 499.27 943.75 493.70 925.09 490.08 916.92 C 486.45 908.76 482.11 897.64 477.69 889.31 C 473.27 880.97 467.21 871.48 463.03 862.97 C 458.84 854.47 452.10 847.11 447.23 838.77 C 442.36 830.43 435.98 822.92 430.23 814.77 C 424.48 806.62 418.40 800.44 412.25 792.75 C 406.09 785.06 399.60 778.68 392.75 771.25 C 385.90 763.82 378.64 758.70 372.10 751.90 C 365.56 745.10 353.59 740.11 352.00 731.00
C 359.04 729.14 365.37 724.41 373.00 724.00
C 375.83 723.73 379.17 723.73 382.00 724.00
C 392.54 724.99 402.16 730.41 413.00 731.00
C 418.06 731.28 423.97 731.62 429.00 731.00
C 469.63 720.94 488.97 675.06 485.00 634.00
C 484.68 630.70 484.31 625.91 484.00 622.00
C 481.37 588.87 454.96 567.34 428.77 550.23 C 402.58 533.12 368.34 519.83 337.00 514.00
C 334.35 513.51 331.19 512.41 329.00 512.00
C 325.14 511.70 321.76 511.26 318.00 511.00
C 312.49 510.63 307.54 510.11 302.00 510.00
C 287.61 509.71 271.60 506.07 258.00 502.00
C 254.97 501.09 252.06 499.90 249.00 499.00
C 225.59 492.09 199.59 477.67 183.00 459.00
C 179.54 455.11 175.25 450.80 172.00 447.00
C 171.24 446.11 170.64 444.93 170.00 444.00
C 168.37 441.65 166.48 439.41 165.00 437.00
C 143.74 402.30 139.65 361.08 145.00 320.00
C 145.41 316.87 146.58 313.56 147.00 311.00
C 147.83 295.61 153.11 278.60 158.77 264.77 C 164.43 250.94 166.03 233.95 175.00 222.00
C 179.17 216.45 179.82 221.41 180.00 226.00
C 180.14 229.65 180.00 233.34 180.00 237.00
C 180.23 239.34 181.75 243.32 182.00 246.00
C 182.94 256.00 184.47 265.29 185.00 275.00
C 185.35 277.16 186.51 280.38 187.00 283.00
C 195.35 327.89 214.91 371.13 245.00 406.00
C 249.86 411.63 255.21 417.05 261.00 422.00
C 262.88 423.61 264.50 425.08 266.00 427.00
C 266.35 427.13 266.81 427.68 267.00 428.00
C 272.02 430.36 276.06 435.30 280.00 438.00
C 307.77 451.58 335.23 469.69 361.70 484.30 C 388.16 498.92 421.12 510.77 443.00 531.00
C 449.27 535.57 454.95 540.03 461.00 545.00
C 466.60 548.40 471.95 554.69 476.70 559.30 C 481.45 563.90 485.97 572.77 490.10 576.90 C 494.23 581.03 497.15 595.95 502.00 592.00
C 503.06 590.74 505.15 586.48 506.00 585.00
C 517.83 556.94 545.84 536.73 571.75 520.75 C 597.65 504.77 628.21 488.91 656.03 475.03 C 683.84 461.15 710.23 440.24 737.00 425.00
C 741.52 421.13 747.02 415.43 751.00 411.00
C 789.31 368.32 811.56 312.69 818.00 255.00
C 818.48 250.72 819.64 245.71 820.00 242.00
C 820.00 239.00 820.00 236.00 820.00 233.00
C 820.00 227.92 818.84 212.25 825.00 222.00
M 924.00 458.00 
C 924.68 465.27 923.63 473.52 923.00 480.00
C 923.00 492.09 921.51 502.68 919.00 514.00
C 918.44 516.53 917.64 518.88 917.00 521.00
C 908.17 578.90 849.19 611.53 797.00 620.00
C 785.98 621.79 772.78 621.24 761.00 621.00
C 736.41 620.51 712.43 610.12 689.92 603.08 C 667.42 596.03 650.65 579.61 628.00 575.00
C 621.01 573.58 612.38 573.29 605.00 574.00
C 587.20 577.82 573.33 586.85 569.00 605.00 C 564.67 623.16 567.18 641.83 582.23 652.77 C 597.28 663.71 613.92 669.25 632.00 671.00
C 634.97 671.29 638.02 670.78 641.00 671.00
C 641.00 672.00 641.00 673.00 641.00 674.00
C 643.07 681.52 636.13 690.33 632.25 696.25 C 628.36 702.16 619.18 707.37 612.00 708.00
C 607.12 708.99 601.80 708.86 597.00 708.00
C 566.86 702.60 550.12 674.23 549.00 645.00
C 547.66 635.64 547.64 624.75 549.00 615.00
C 550.19 606.45 552.16 598.09 555.00 590.00
C 555.80 587.73 556.91 585.87 558.00 584.00
C 578.09 549.45 626.91 540.00 665.00 540.00
C 667.95 540.00 671.06 540.28 674.00 540.00
C 676.75 539.73 680.58 539.00 684.00 539.00
C 688.72 538.54 694.60 538.00 700.00 538.00
C 704.59 538.00 709.43 538.44 714.00 538.00
C 716.87 535.04 726.84 537.40 731.00 537.00
C 732.96 534.97 738.16 536.11 741.00 536.00
C 747.14 535.77 752.84 534.71 759.00 534.00
C 760.70 533.57 762.91 531.52 765.00 531.00
C 768.82 530.04 772.23 529.29 776.00 528.00
C 779.23 526.89 782.80 526.29 786.00 525.00
C 805.31 517.24 823.27 505.49 838.00 492.00
C 846.35 484.36 854.58 476.51 862.00 468.00
C 882.24 444.78 897.46 420.29 910.00 392.00
C 916.95 394.63 914.72 403.87 917.33 410.67 C 919.94 417.47 920.46 425.70 921.78 433.22 C 923.10 440.74 921.89 450.60 924.00 458.00
M 138.00 468.00 
C 142.90 473.63 148.19 481.23 154.00 486.00
C 179.62 502.87 200.72 522.89 232.00 531.00
C 234.30 531.60 237.05 532.45 239.00 533.00
C 244.89 534.67 251.79 535.66 258.00 536.00
C 267.04 536.49 275.90 536.15 285.00 537.00
C 289.80 537.45 294.86 538.00 300.00 538.00
C 305.39 538.00 311.36 538.55 316.00 539.00
C 319.43 539.00 323.31 539.74 326.00 540.00
C 328.94 540.28 332.05 540.00 335.00 540.00
C 348.11 540.00 361.21 543.17 374.00 545.00
C 376.93 545.42 379.65 546.51 382.00 547.00
C 384.34 547.49 387.09 547.51 389.00 548.00
C 422.18 556.60 449.26 577.91 450.00 615.00
C 450.93 624.64 452.42 635.09 451.00 645.00
C 450.40 660.67 445.24 676.41 436.00 688.00
C 432.05 692.96 428.97 695.41 424.00 699.00
C 418.30 704.76 410.74 706.61 403.00 708.00
C 398.13 708.87 392.82 708.98 388.00 708.00
C 374.79 706.84 363.19 694.73 361.00 682.00
C 360.09 679.19 358.74 677.73 359.00 674.00
C 359.03 673.50 358.77 672.35 359.00 672.00
C 360.63 669.49 371.85 670.40 375.00 670.00
C 386.85 666.15 398.63 663.63 410.00 659.00
C 412.76 657.32 416.42 654.25 419.00 652.00
C 431.41 638.31 436.14 622.72 431.02 603.98 C 425.91 585.23 411.50 577.75 394.00 574.00
C 387.62 573.38 379.34 573.09 373.00 574.00
C 351.51 579.83 335.88 593.69 314.31 601.31 C 292.73 608.92 269.67 618.72 246.00 620.00
C 240.01 620.97 231.26 619.39 225.00 621.00
C 224.22 621.49 224.31 622.09 223.00 622.00
C 213.45 621.37 203.36 620.49 194.00 619.00
C 161.20 613.78 133.72 598.11 110.75 574.25 C 87.78 550.39 79.13 514.38 76.00 481.00
C 75.26 473.15 75.26 463.85 76.00 456.00
C 76.83 447.17 77.84 437.87 79.00 429.00
C 79.42 425.80 80.50 422.65 81.00 420.00
C 81.72 410.58 85.06 402.36 86.00 393.00
C 94.01 393.63 94.99 404.60 99.11 410.89 C 103.22 417.19 106.38 424.84 110.77 431.23 C 115.16 437.62 119.09 444.56 123.71 450.30 C 128.32 456.03 132.83 462.81 138.00 468.00 Z"/>
</g>
<g fill="None" fill-opacity="0.0" stroke="#77C2A8" stroke-opacity="0.98" stroke-width="0.3"><path d="
M 307.00 129.00 
C 304.86 131.27 302.15 133.97 299.00 136.00
C 266.00 157.29 242.12 198.17 233.00 235.00
C 232.71 238.23 231.77 242.42 231.00 246.00
C 229.80 258.45 229.83 271.93 231.00 284.00
C 230.99 283.95 231.90 289.31 232.00 292.00
C 232.16 296.13 232.49 299.89 233.00 304.00
C 236.73 334.05 250.15 370.79 272.00 392.00
C 280.74 400.49 289.68 409.18 298.00 418.00
C 310.82 431.60 327.55 439.92 343.92 449.08 C 360.30 458.24 379.74 466.68 397.98 472.03 C 416.21 477.37 436.51 488.66 456.00 490.00
C 458.04 489.33 458.14 488.21 457.00 486.00
C 449.60 479.11 440.79 472.79 433.00 466.00
C 421.75 459.18 408.19 445.61 401.00 434.00
C 395.23 424.68 387.81 417.38 382.00 408.00
C 379.71 405.42 377.17 402.51 376.00 400.00
C 351.76 367.40 334.93 321.80 330.00 282.00
C 328.68 277.72 328.00 274.19 328.00 269.00
C 328.00 266.00 328.00 263.00 328.00 260.00
C 327.70 258.55 326.00 255.46 326.00 252.00
C 326.00 243.65 326.27 234.58 327.00 227.00
C 327.35 223.34 327.57 219.03 328.00 216.00
C 328.25 209.52 329.28 203.41 330.00 197.00
C 329.78 193.23 330.37 189.67 331.00 188.00
C 335.59 159.75 344.79 129.11 357.00 103.00
C 357.29 101.63 356.66 98.19 358.00 96.00
C 352.49 94.49 345.11 104.10 339.70 105.70 C 334.28 107.29 328.32 113.71 322.75 116.75 C 317.17 119.78 312.23 125.19 307.00 129.00 Z"/>
</g>
<g fill="None" fill-opacity="0.0" stroke="#A1C6BA" stroke-opacity="0.56" stroke-width="0.3"><path d="
M 357.00 103.00 
C 357.90 101.07 361.86 97.06 358.00 96.00
C 356.66 98.19 357.29 101.63 357.00 103.00 Z"/>
</g>
<g fill="None" fill-opacity="0.0" stroke="#77C2A8" stroke-opacity="0.98" stroke-width="0.3"><path d="
M 649.00 117.00 
C 651.00 119.98 650.56 120.36 651.00 123.00
C 661.39 152.24 671.36 184.15 672.00 216.00
C 674.06 226.84 675.38 240.89 673.00 252.00
C 671.92 257.04 672.00 263.23 672.00 269.00
C 672.00 274.21 671.31 277.76 670.00 282.00
C 667.42 302.80 659.46 325.57 652.78 344.78 C 646.09 363.98 634.48 379.94 625.32 397.32 C 616.16 414.70 600.70 425.97 591.00 443.00
C 586.48 450.93 575.90 461.50 568.00 466.00
C 559.63 470.77 550.04 479.44 543.00 486.00
C 541.88 488.17 541.78 489.27 544.00 490.00
C 562.30 488.74 580.47 478.21 597.77 473.77 C 615.07 469.33 631.19 460.49 647.32 453.32 C 663.45 446.15 676.75 436.87 691.00 427.00
C 693.52 424.65 696.22 421.94 698.00 421.00
C 734.54 389.77 758.02 354.41 767.00 307.00
C 766.99 303.50 767.37 300.47 768.00 299.00
C 768.28 297.40 768.94 295.26 769.00 293.00
C 768.84 290.58 766.48 286.44 769.00 284.00
C 768.04 273.54 769.00 262.51 769.00 252.00
C 769.00 240.85 765.58 228.80 761.98 219.02 C 758.37 209.25 755.26 200.40 749.92 192.08 C 744.58 183.76 739.59 175.50 733.70 168.30 C 727.82 161.09 722.32 154.38 715.25 147.75 C 708.17 141.13 702.34 135.64 694.70 129.30 C 687.06 122.97 679.80 118.61 671.25 112.75 C 662.70 106.90 657.39 103.22 647.08 97.92 C 636.76 92.63 645.02 111.08 649.00 117.00 Z"/>
</g>
<g fill="None" fill-opacity="0.0" stroke="#A2D0C1" stroke-opacity="0.62" stroke-width="0.3"><path d="
M 651.00 123.00 
C 650.56 120.36 651.00 119.98 649.00 117.00
C 649.74 118.88 650.42 121.37 651.00 123.00 Z"/>
</g>
<g fill="None" fill-opacity="0.0" stroke="#A1C8B9" stroke-opacity="0.46" stroke-width="0.3"><path d="
M 299.00 136.00 
C 302.15 133.97 304.86 131.27 307.00 129.00
C 304.30 130.97 301.74 133.75 299.00 136.00 Z"/>
</g>
<g fill="None" fill-opacity="0.0" stroke="#A9D5C6" stroke-opacity="0.71" stroke-width="0.3"><path d="
M 330.00 197.00 
C 330.35 193.91 330.50 191.07 331.00 188.00
C 330.37 189.67 329.78 193.23 330.00 197.00 Z"/>
</g>
<g fill="None" fill-opacity="0.0" stroke="#669784" stroke-opacity="0.08" stroke-width="0.3"><path d="
M 327.00 227.00 
C 327.29 224.03 327.86 219.68 328.00 216.00
C 327.57 219.03 327.35 223.34 327.00 227.00 Z"/>
</g>
<g fill="None" fill-opacity="0.0" stroke="#90B3A9" stroke-opacity="0.40" stroke-width="0.3"><path d="
M 673.00 252.00 
C 675.38 240.89 674.06 226.84 672.00 216.00
C 672.24 227.90 674.17 239.90 673.00 252.00 Z"/>
</g>
<g fill="None" fill-opacity="0.0" stroke="#A1C3B6" stroke-opacity="0.20" stroke-width="0.3"><path d="
M 820.00 233.00 
C 820.38 229.05 821.04 223.22 822.00 219.00
C 823.88 219.24 823.46 221.55 825.00 222.00
C 818.84 212.25 820.00 227.92 820.00 233.00 Z"/>
</g>
<g fill="None" fill-opacity="0.0" stroke="#97C1B3" stroke-opacity="0.36" stroke-width="0.3"><path d="
M 175.00 222.00 
C 175.64 221.39 177.48 221.24 178.00 220.00
C 179.95 221.55 177.80 224.90 180.00 226.00
C 179.82 221.41 179.17 216.45 175.00 222.00 Z"/>
</g>
<g fill="None" fill-opacity="0.0" stroke="#78C2A9" stroke-opacity="0.98" stroke-width="0.3"><path d="
M 820.00 233.00 
C 820.00 236.00 820.00 239.00 820.00 242.00
C 820.00 246.92 818.96 250.86 818.00 255.00
C 811.56 312.69 789.31 368.32 751.00 411.00
C 748.45 415.36 742.46 421.89 737.00 425.00
C 710.23 440.24 683.84 461.15 656.03 475.03 C 628.21 488.91 597.65 504.77 571.75 520.75 C 545.84 536.73 517.83 556.94 506.00 585.00
C 504.94 587.51 504.19 590.22 502.00 592.00
C 497.15 595.95 494.23 581.03 490.10 576.90 C 485.97 572.77 481.45 563.90 476.70 559.30 C 471.95 554.69 466.60 548.40 461.00 545.00
C 454.64 541.15 448.31 535.91 443.00 531.00
C 421.12 510.77 388.16 498.92 361.70 484.30 C 335.23 469.69 307.77 451.58 280.00 438.00
C 275.96 436.03 269.30 431.86 267.00 428.00
C 266.81 427.68 266.35 427.13 266.00 427.00
C 263.85 426.23 262.10 425.26 261.00 423.00
C 254.72 422.33 247.25 409.47 245.00 406.00
C 214.91 371.13 195.35 327.89 187.00 283.00
C 186.11 280.27 185.18 278.40 185.00 275.00
C 184.47 265.29 182.94 256.00 182.00 246.00
C 181.64 244.28 180.00 240.75 180.00 237.00
C 180.00 233.34 180.14 229.65 180.00 226.00
C 177.80 224.90 179.95 221.55 178.00 220.00
C 177.48 221.24 175.64 221.39 175.00 222.00
C 166.03 233.95 164.43 250.94 158.77 264.77 C 153.11 278.60 147.83 295.61 147.00 311.00
C 146.81 314.51 145.73 317.13 145.00 320.00
C 139.65 361.08 143.74 402.30 165.00 437.00
C 166.24 438.50 167.60 439.46 169.75 441.25 C 171.91 443.03 170.51 445.86 170.00 444.00
C 170.64 444.93 171.24 446.11 172.00 447.00
C 176.49 451.03 179.68 453.75 183.00 459.00
C 199.59 477.67 225.59 492.09 249.00 499.00
C 250.29 499.12 252.16 498.00 254.22 498.78 C 256.28 499.56 256.97 501.48 258.00 502.00
C 271.60 506.07 287.61 509.71 302.00 510.00
C 307.32 509.59 312.66 510.04 318.00 511.00
C 321.76 511.26 325.14 511.70 329.00 512.00
C 332.37 512.26 334.28 513.12 337.00 514.00
C 368.34 519.83 402.58 533.12 428.77 550.23 C 454.96 567.34 481.37 588.87 484.00 622.00
C 484.66 625.44 485.03 631.01 485.00 634.00
C 488.97 675.06 469.63 720.94 429.00 731.00
C 423.87 732.27 418.02 731.82 413.00 731.00
C 402.16 730.41 392.54 724.99 382.00 724.00
C 380.01 724.01 374.92 724.01 373.00 724.00
C 365.37 724.41 359.04 729.14 352.00 731.00
C 353.59 740.11 365.56 745.10 372.10 751.90 C 378.64 758.70 385.90 763.82 392.75 771.25 C 399.60 778.68 406.09 785.06 412.25 792.75 C 418.40 800.44 424.48 806.62 430.23 814.77 C 435.98 822.92 442.36 830.43 447.23 838.77 C 452.10 847.11 458.84 854.47 463.03 862.97 C 467.21 871.48 473.27 880.97 477.69 889.31 C 482.11 897.64 486.45 908.76 490.08 916.92 C 493.70 925.09 499.27 943.75 503.69 931.69 C 508.12 919.64 511.25 914.30 516.01 904.01 C 520.76 893.72 524.27 886.11 529.70 876.69 C 535.12 867.28 539.75 859.99 544.00 851.00
C 545.74 847.32 547.35 845.07 550.00 842.00
C 556.48 834.49 560.78 826.33 566.75 818.75 C 572.72 811.17 577.96 804.36 584.23 797.23 C 590.50 790.10 596.16 782.34 603.10 776.10 C 610.04 769.86 614.69 763.28 622.75 756.75 C 630.81 750.23 634.86 745.20 644.25 738.25 C 653.65 731.31 636.93 725.18 628.00 725.00
C 624.87 724.94 620.32 724.01 618.00 724.00
C 607.48 724.99 597.80 730.41 587.00 731.00
C 582.14 731.79 576.83 732.07 572.00 731.00
C 542.51 724.47 532.75 702.89 520.00 679.00
C 518.96 677.05 519.67 677.13 518.01 674.99 C 516.35 672.86 519.00 671.14 519.00 671.00
C 518.04 666.45 516.26 662.88 516.00 658.00
C 514.42 648.29 514.60 636.45 515.00 626.00
C 515.18 621.25 516.55 619.61 518.00 616.00
C 526.51 582.67 551.37 560.08 581.31 544.30 C 611.24 528.53 647.89 512.91 683.00 511.00
C 688.11 510.17 692.97 509.61 698.00 510.00
C 700.46 509.90 703.15 509.26 705.00 509.00
C 708.86 507.78 711.31 507.99 715.00 508.00
C 741.78 503.29 766.70 494.83 790.00 481.00
C 792.93 478.50 796.22 476.20 800.00 474.00
C 837.82 446.98 853.77 406.08 858.00 361.00
C 857.99 356.37 857.99 348.55 858.00 344.00
C 855.98 322.47 853.14 297.77 845.99 278.01 C 838.85 258.25 836.21 239.74 825.00 222.00
C 823.46 221.55 823.88 219.24 822.00 219.00
C 821.04 223.22 820.38 229.05 820.00 233.00
M 557.00 767.00 
C 562.95 770.89 542.55 769.76 539.00 769.00
C 529.74 767.02 521.59 764.30 514.00 758.00
C 509.27 755.22 504.08 752.12 501.00 747.00
C 495.06 748.84 492.45 756.98 486.00 758.00
C 478.36 764.33 470.23 767.02 461.00 769.00
C 454.81 770.33 446.53 770.77 440.00 769.00
C 440.52 768.17 442.25 765.09 443.00 767.00
C 451.24 762.86 458.29 758.08 466.00 753.00
C 469.77 749.72 472.88 746.55 477.00 744.00
C 486.97 737.83 495.90 725.58 499.00 714.00
C 504.96 724.53 512.75 736.78 523.25 744.75 C 533.74 752.73 544.59 761.61 557.00 767.00
M 534.00 801.00 
C 538.52 801.63 540.33 801.58 536.00 806.00
C 528.93 813.21 524.22 824.61 517.08 833.08 C 509.93 841.54 507.75 854.37 501.00 863.00
C 500.63 864.78 500.76 869.21 500.00 872.00
C 499.17 870.09 497.16 865.76 499.00 864.00
C 497.41 852.25 487.63 842.89 482.25 832.75 C 476.87 822.61 469.13 813.15 463.00 803.00
C 478.77 797.92 489.93 787.24 501.00 777.00
C 508.93 788.60 520.52 797.42 534.00 801.00 Z"/>
</g>
<g fill="None" fill-opacity="0.0" stroke="#9FBEB5" stroke-opacity="0.39" stroke-width="0.3"><path d="
M 326.00 252.00 
C 326.00 251.96 327.00 252.00 327.00 252.00
C 326.24 244.18 326.24 234.82 327.00 227.00
C 326.27 234.58 326.00 243.65 326.00 252.00 Z"/>
</g>
<g fill="None" fill-opacity="0.0" stroke="#AFD8C6" stroke-opacity="0.36" stroke-width="0.3"><path d="
M 231.00 246.00 
C 231.77 242.42 232.71 238.23 233.00 235.00
C 232.07 238.77 231.38 242.07 231.00 246.00 Z"/>
</g>
<g fill="None" fill-opacity="0.0" stroke="#A8CABD" stroke-opacity="0.49" stroke-width="0.3"><path d="
M 182.00 246.00 
C 181.75 243.32 180.23 239.34 180.00 237.00
C 180.00 240.75 181.64 244.28 182.00 246.00 Z"/>
</g>
<g fill="None" fill-opacity="0.0" stroke="#A3C7BB" stroke-opacity="0.44" stroke-width="0.3"><path d="
M 818.00 255.00 
C 818.96 250.86 820.00 246.92 820.00 242.00
C 819.64 245.71 818.48 250.72 818.00 255.00 Z"/>
</g>
<g fill="None" fill-opacity="0.0" stroke="#8BB5A6" stroke-opacity="0.54" stroke-width="0.3"><path d="
M 328.00 260.00 
C 328.00 257.55 328.73 253.67 327.00 252.00
C 327.00 252.00 326.00 251.96 326.00 252.00
C 326.00 255.46 327.70 258.55 328.00 260.00 Z"/>
</g>
<g fill="None" fill-opacity="0.0" stroke="#97BFB2" stroke-opacity="0.43" stroke-width="0.3"><path d="
M 769.00 284.00 
C 769.26 283.75 770.00 284.00 770.00 284.00
C 770.98 273.59 769.94 261.70 769.00 252.00
C 769.00 262.51 768.04 273.54 769.00 284.00 Z"/>
</g>
<g fill="None" fill-opacity="0.0" stroke="#B2D6CA" stroke-opacity="0.49" stroke-width="0.3"><path d="
M 330.00 282.00 
C 329.47 277.72 328.36 272.74 328.00 269.00
C 328.00 274.19 328.68 277.72 330.00 282.00 Z"/>
</g>
<g fill="None" fill-opacity="0.0" stroke="#B1D9CB" stroke-opacity="0.49" stroke-width="0.3"><path d="
M 670.00 282.00 
C 671.31 277.76 672.00 274.21 672.00 269.00
C 671.64 272.68 670.53 277.76 670.00 282.00 Z"/>
</g>
<g fill="None" fill-opacity="0.0" stroke="#AACABE" stroke-opacity="0.30" stroke-width="0.3"><path d="
M 187.00 283.00 
C 186.51 280.38 185.35 277.16 185.00 275.00
C 185.18 278.40 186.11 280.27 187.00 283.00 Z"/>
</g>
<g fill="None" fill-opacity="0.0" stroke="#96D4BF" stroke-opacity="0.76" stroke-width="0.3"><path d="
M 231.00 284.00 
C 231.25 286.62 230.95 289.36 231.00 292.00
C 231.00 292.04 232.00 292.00 232.00 292.00
C 231.90 289.31 230.99 283.95 231.00 284.00 Z"/>
</g>
<g fill="None" fill-opacity="0.0" stroke="#97CFBF" stroke-opacity="0.67" stroke-width="0.3"><path d="
M 769.00 293.00 
C 769.09 289.87 769.73 286.83 770.00 284.00
C 770.00 284.00 769.26 283.75 769.00 284.00
C 766.48 286.44 768.84 290.58 769.00 293.00 Z"/>
</g>
<g fill="None" fill-opacity="0.0" stroke="#B3DACB" stroke-opacity="0.23" stroke-width="0.3"><path d="
M 233.00 304.00 
C 232.49 299.89 232.16 296.13 232.00 292.00
C 232.00 292.00 231.00 292.04 231.00 292.00
C 231.09 296.54 232.05 300.16 233.00 304.00 Z"/>
</g>
<g fill="None" fill-opacity="0.0" stroke="#ABDACA" stroke-opacity="0.63" stroke-width="0.3"><path d="
M 767.00 307.00 
C 767.52 304.28 767.52 301.75 768.00 299.00
C 767.37 300.47 766.99 303.50 767.00 307.00 Z"/>
</g>
<g fill="None" fill-opacity="0.0" stroke="#9CC5B6" stroke-opacity="0.38" stroke-width="0.3"><path d="
M 145.00 320.00 
C 145.73 317.13 146.81 314.51 147.00 311.00
C 146.58 313.56 145.41 316.87 145.00 320.00 Z"/>
</g>
<g fill="None" fill-opacity="0.0" stroke="#B8E6D7" stroke-opacity="0.64" stroke-width="0.3"><path d="
M 858.00 361.00 
C 858.50 355.66 858.50 349.34 858.00 344.00
C 857.99 348.55 857.99 356.37 858.00 361.00 Z"/>
</g>
<g fill="None" fill-opacity="0.0" stroke="#98CBB9" stroke-opacity="0.47" stroke-width="0.3"><path d="
M 298.00 418.00 
C 289.68 409.18 280.74 400.49 272.00 392.00
C 280.11 401.22 288.52 410.06 298.00 418.00 Z"/>
</g>
<g fill="None" fill-opacity="0.0" stroke="#77C2A8" stroke-opacity="0.98" stroke-width="0.3"><path d="
M 862.00 468.00 
C 856.16 477.64 847.34 486.03 838.00 492.00
C 823.27 505.49 805.31 517.24 786.00 525.00
C 782.01 527.55 779.76 527.40 776.00 528.00
C 772.23 529.29 768.82 530.04 765.00 531.00
C 763.05 531.84 762.64 533.58 759.00 534.00
C 752.84 534.71 747.14 535.77 741.00 536.00
C 738.31 536.38 734.03 537.72 731.00 538.00
C 725.35 538.53 719.41 538.52 714.00 539.00
C 709.41 539.40 704.61 539.00 700.00 539.00
C 695.00 539.00 690.00 539.00 685.00 539.00
C 682.06 539.28 677.53 539.66 674.00 540.00
C 671.18 540.27 667.76 540.27 665.00 540.00
C 626.91 540.00 578.09 549.45 558.00 584.00
C 557.89 584.36 559.01 585.79 558.22 587.23 C 557.43 588.66 555.51 589.23 555.00 590.00
C 552.16 598.09 550.19 606.45 549.00 615.00
C 549.03 623.92 548.62 635.04 549.00 645.00
C 550.12 674.23 566.86 702.60 597.00 708.00
C 600.63 708.27 607.42 708.40 612.00 708.00
C 619.18 707.37 628.36 702.16 632.25 696.25 C 636.13 690.33 643.07 681.52 641.00 674.00
C 640.01 671.85 631.78 670.94 632.00 671.00
C 613.92 669.25 597.28 663.71 582.23 652.77 C 567.18 641.83 564.67 623.16 569.00 605.00 C 573.33 586.85 587.20 577.82 605.00 574.00
C 612.52 572.39 621.97 572.91 628.00 575.00
C 650.65 579.61 667.42 596.03 689.92 603.08 C 712.43 610.12 736.41 620.51 761.00 621.00
C 772.02 620.15 786.43 620.60 797.00 620.00
C 849.19 611.53 908.17 578.90 917.00 521.00
C 917.47 517.90 918.03 516.49 919.00 514.00
C 921.51 502.68 923.00 492.09 923.00 480.00
C 923.00 472.83 923.98 464.35 924.00 458.00
C 921.89 450.60 923.10 440.74 921.78 433.22 C 920.46 425.70 919.94 417.47 917.33 410.67 C 914.72 403.87 916.95 394.63 910.00 392.00
C 897.46 420.29 882.24 444.78 862.00 468.00 Z"/>
</g>
<g fill="None" fill-opacity="0.0" stroke="#77C2A8" stroke-opacity="0.98" stroke-width="0.3"><path d="
M 81.00 420.00 
C 80.73 423.47 79.73 426.14 79.00 429.00
C 77.84 437.87 76.83 447.17 76.00 456.00
C 76.02 463.29 76.02 473.78 76.00 481.00
C 79.13 514.38 87.78 550.39 110.75 574.25 C 133.72 598.11 161.20 613.78 194.00 619.00
C 198.72 618.97 202.51 619.84 208.00 620.00 C 213.49 620.16 219.26 620.45 223.00 622.00
C 224.31 622.09 224.22 621.49 225.00 621.00
C 229.81 617.99 240.07 620.32 246.00 620.00
C 269.67 618.72 292.73 608.92 314.31 601.31 C 335.88 593.69 351.51 579.83 373.00 574.00
C 379.19 572.32 387.87 572.69 394.00 574.00
C 411.50 577.75 425.91 585.23 431.02 603.98 C 436.14 622.72 431.41 638.31 419.00 652.00
C 416.08 655.22 413.93 657.40 410.00 659.00
C 398.63 663.63 386.85 666.15 375.00 670.00
C 370.72 671.39 363.10 670.18 359.00 672.00
C 358.77 672.35 359.03 673.50 359.00 674.00
C 359.88 676.53 360.48 679.01 361.00 682.00
C 363.19 694.73 374.79 706.84 388.00 708.00
C 392.60 708.40 399.49 708.26 403.00 708.00
C 410.74 706.61 418.30 704.76 424.00 699.00
C 427.85 695.11 433.28 690.33 436.00 688.00
C 445.24 676.41 450.40 660.67 451.00 645.00
C 451.39 634.79 450.20 624.92 450.00 615.00
C 449.26 577.91 422.18 556.60 389.00 548.00
C 388.53 547.98 387.33 550.43 385.92 549.06 C 384.51 547.70 383.27 547.39 382.00 547.00
C 379.59 546.26 376.13 545.58 374.00 545.00
C 361.21 543.17 348.11 540.00 335.00 540.00
C 332.18 540.27 328.76 540.27 326.00 540.00
C 322.47 539.66 317.87 539.28 315.00 539.00
C 310.00 539.00 305.00 539.00 300.00 539.00
C 295.07 539.00 289.90 539.46 285.00 539.00
C 276.20 538.17 266.00 538.17 258.00 536.00
C 251.79 535.66 244.89 534.67 239.00 533.00
C 236.96 532.74 234.41 532.00 232.00 531.00
C 200.72 522.89 179.62 502.87 154.00 486.00
C 147.52 481.73 141.81 474.29 138.00 468.00
C 132.83 462.81 128.32 456.03 123.71 450.30 C 119.09 444.56 115.16 437.62 110.77 431.23 C 106.38 424.84 103.22 417.19 99.11 410.89 C 94.99 404.60 94.01 393.63 86.00 393.00
C 85.06 402.36 81.72 410.58 81.00 420.00 Z"/>
</g>
<g fill="None" fill-opacity="0.0" stroke="#9DCEB8" stroke-opacity="0.42" stroke-width="0.3"><path d="
M 382.00 408.00 
C 380.21 405.10 377.93 402.59 376.00 400.00
C 377.17 402.51 379.71 405.42 382.00 408.00 Z"/>
</g>
<g fill="None" fill-opacity="0.0" stroke="#A0CBBC" stroke-opacity="0.58" stroke-width="0.3"><path d="
M 261.00 423.00 
C 260.80 422.60 261.00 422.00 261.00 422.00
C 255.21 417.05 249.86 411.63 245.00 406.00
C 247.25 409.47 254.72 422.33 261.00 423.00 Z"/>
</g>
<g fill="None" fill-opacity="0.0" stroke="#95C1B3" stroke-opacity="0.48" stroke-width="0.3"><path d="
M 737.00 425.00 
C 742.46 421.89 748.45 415.36 751.00 411.00
C 747.02 415.43 741.52 421.13 737.00 425.00 Z"/>
</g>
<g fill="None" fill-opacity="0.0" stroke="#9BCABA" stroke-opacity="0.33" stroke-width="0.3"><path d="
M 79.00 429.00 
C 79.73 426.14 80.73 423.47 81.00 420.00
C 80.50 422.65 79.42 425.80 79.00 429.00 Z"/>
</g>
<g fill="None" fill-opacity="0.0" stroke="#9FCABC" stroke-opacity="0.42" stroke-width="0.3"><path d="
M 691.00 427.00 
C 693.67 425.15 695.57 423.08 698.00 421.00
C 696.22 421.94 693.52 424.65 691.00 427.00 Z"/>
</g>
<g fill="None" fill-opacity="0.0" stroke="#8DC7B6" stroke-opacity="0.42" stroke-width="0.3"><path d="
M 261.00 423.00 
C 262.10 425.26 263.85 426.23 266.00 427.00
C 264.50 425.08 262.88 423.61 261.00 422.00
C 261.00 422.00 260.80 422.60 261.00 423.00 Z"/>
</g>
<g fill="None" fill-opacity="0.0" stroke="#A3C8BB" stroke-opacity="0.37" stroke-width="0.3"><path d="
M 280.00 438.00 
C 276.06 435.30 272.02 430.36 267.00 428.00
C 269.30 431.86 275.96 436.03 280.00 438.00 Z"/>
</g>
<g fill="None" fill-opacity="0.0" stroke="#9DCCBD" stroke-opacity="0.46" stroke-width="0.3"><path d="
M 433.00 466.00 
C 422.19 456.58 409.94 444.46 401.00 434.00
C 408.19 445.61 421.75 459.18 433.00 466.00 Z"/>
</g>
<g fill="None" fill-opacity="0.0" stroke="#9DCBB8" stroke-opacity="0.49" stroke-width="0.3"><path d="
M 170.00 444.00 
C 170.51 445.86 171.91 443.03 169.75 441.25 C 167.60 439.46 166.24 438.50 165.00 437.00
C 166.48 439.41 168.37 441.65 170.00 444.00 Z"/>
</g>
<g fill="None" fill-opacity="0.0" stroke="#A5CDBF" stroke-opacity="0.55" stroke-width="0.3"><path d="
M 568.00 466.00 
C 575.90 461.50 586.48 450.93 591.00 443.00
C 584.87 450.46 575.51 459.83 568.00 466.00 Z"/>
</g>
<g fill="None" fill-opacity="0.0" stroke="#94C5B6" stroke-opacity="0.46" stroke-width="0.3"><path d="
M 183.00 459.00 
C 179.68 453.75 176.49 451.03 172.00 447.00
C 175.25 450.80 179.54 455.11 183.00 459.00 Z"/>
</g>
<g fill="None" fill-opacity="0.0" stroke="#C9E4DB" stroke-opacity="0.61" stroke-width="0.3"><path d="
M 76.00 481.00 
C 76.02 473.78 76.02 463.29 76.00 456.00
C 75.26 463.85 75.26 473.15 76.00 481.00 Z"/>
</g>
<g fill="None" fill-opacity="0.0" stroke="#C3EADD" stroke-opacity="0.61" stroke-width="0.3"><path d="
M 923.00 480.00 
C 923.63 473.52 924.68 465.27 924.00 458.00
C 923.98 464.35 923.00 472.83 923.00 480.00 Z"/>
</g>
<g fill="None" fill-opacity="0.0" stroke="#A5CBBD" stroke-opacity="0.40" stroke-width="0.3"><path d="
M 154.00 486.00 
C 148.19 481.23 142.90 473.63 138.00 468.00
C 141.81 474.29 147.52 481.73 154.00 486.00 Z"/>
</g>
<g fill="None" fill-opacity="0.0" stroke="#A2C6BB" stroke-opacity="0.41" stroke-width="0.3"><path d="
M 838.00 492.00 
C 847.34 486.03 856.16 477.64 862.00 468.00
C 854.58 476.51 846.35 484.36 838.00 492.00 Z"/>
</g>
<g fill="None" fill-opacity="0.0" stroke="#9FC7BB" stroke-opacity="0.34" stroke-width="0.3"><path d="
M 790.00 481.00 
C 793.50 478.92 796.78 476.30 800.00 474.00
C 796.22 476.20 792.93 478.50 790.00 481.00 Z"/>
</g>
<g fill="None" fill-opacity="0.0" stroke="#96C3B3" stroke-opacity="0.31" stroke-width="0.3"><path d="
M 456.00 490.00 
C 460.03 490.28 460.60 489.36 457.00 486.00
C 458.14 488.21 458.04 489.33 456.00 490.00 Z"/>
</g>
<g fill="None" fill-opacity="0.0" stroke="#98C3B4" stroke-opacity="0.31" stroke-width="0.3"><path d="
M 544.00 490.00 
C 541.78 489.27 541.88 488.17 543.00 486.00
C 539.48 489.27 539.89 490.28 544.00 490.00 Z"/>
</g>
<g fill="None" fill-opacity="0.0" stroke="#97C1B3" stroke-opacity="0.68" stroke-width="0.3"><path d="
M 249.00 499.00 
C 252.06 499.90 254.97 501.09 258.00 502.00
C 256.97 501.48 256.28 499.56 254.22 498.78 C 252.16 498.00 250.29 499.12 249.00 499.00 Z"/>
</g>
<g fill="None" fill-opacity="0.0" stroke="#A4CCBF" stroke-opacity="0.55" stroke-width="0.3"><path d="
M 705.00 509.00 
C 708.44 508.51 711.65 508.59 715.00 508.00
C 711.31 507.99 708.86 507.78 705.00 509.00 Z"/>
</g>
<g fill="None" fill-opacity="0.0" stroke="#A7D4C4" stroke-opacity="0.56" stroke-width="0.3"><path d="
M 302.00 510.00 
C 307.54 510.11 312.49 510.63 318.00 511.00
C 312.66 510.04 307.32 509.59 302.00 510.00 Z"/>
</g>
<g fill="None" fill-opacity="0.0" stroke="#A6CDBF" stroke-opacity="0.56" stroke-width="0.3"><path d="
M 683.00 511.00 
C 688.22 510.72 692.82 510.21 698.00 510.00
C 692.97 509.61 688.11 510.17 683.00 511.00 Z"/>
</g>
<g fill="None" fill-opacity="0.0" stroke="#9BC4B6" stroke-opacity="0.40" stroke-width="0.3"><path d="
M 337.00 514.00 
C 334.28 513.12 332.37 512.26 329.00 512.00
C 331.19 512.41 334.35 513.51 337.00 514.00 Z"/>
</g>
<g fill="None" fill-opacity="0.0" stroke="#A3CBBB" stroke-opacity="0.33" stroke-width="0.3"><path d="
M 917.00 521.00 
C 917.64 518.88 918.44 516.53 919.00 514.00
C 918.03 516.49 917.47 517.90 917.00 521.00 Z"/>
</g>
<g fill="None" fill-opacity="0.0" stroke="#AED3C7" stroke-opacity="0.53" stroke-width="0.3"><path d="
M 776.00 528.00 
C 779.76 527.40 782.01 527.55 786.00 525.00
C 782.80 526.29 779.23 526.89 776.00 528.00 Z"/>
</g>
<g fill="None" fill-opacity="0.0" stroke="#A1C9BB" stroke-opacity="0.37" stroke-width="0.3"><path d="
M 239.00 533.00 
C 237.05 532.45 234.30 531.60 232.00 531.00
C 234.41 532.00 236.96 532.74 239.00 533.00 Z"/>
</g>
<g fill="None" fill-opacity="0.0" stroke="#9FC5B9" stroke-opacity="0.36" stroke-width="0.3"><path d="
M 461.00 545.00 
C 454.95 540.03 449.27 535.57 443.00 531.00
C 448.31 535.91 454.64 541.15 461.00 545.00 Z"/>
</g>
<g fill="None" fill-opacity="0.0" stroke="#9CBBB1" stroke-opacity="0.50" stroke-width="0.3"><path d="
M 759.00 534.00 
C 762.64 533.58 763.05 531.84 765.00 531.00
C 762.91 531.52 760.70 533.57 759.00 534.00 Z"/>
</g>
<g fill="None" fill-opacity="0.0" stroke="#A7D1C3" stroke-opacity="0.53" stroke-width="0.3"><path d="
M 285.00 539.00 
C 284.81 538.92 285.19 537.08 285.00 537.00
C 275.90 536.15 267.04 536.49 258.00 536.00
C 266.00 538.17 276.20 538.17 285.00 539.00 Z"/>
</g>
<g fill="None" fill-opacity="0.0" stroke="#A7C9BD" stroke-opacity="0.25" stroke-width="0.3"><path d="
M 731.00 537.00 
C 730.75 537.26 731.00 538.00 731.00 538.00
C 734.03 537.72 738.31 536.38 741.00 536.00
C 738.16 536.11 732.96 534.97 731.00 537.00 Z"/>
</g>
<g fill="None" fill-opacity="0.0" stroke="#B6E0D2" stroke-opacity="0.77" stroke-width="0.3"><path d="
M 285.00 539.00 
C 289.90 539.46 295.07 539.00 300.00 539.00
C 299.96 539.00 300.00 538.00 300.00 538.00
C 294.86 538.00 289.80 537.45 285.00 537.00
C 285.19 537.08 284.81 538.92 285.00 539.00 Z"/>
</g>
<g fill="None" fill-opacity="0.0" stroke="#BBDAD0" stroke-opacity="0.53" stroke-width="0.3"><path d="
M 714.00 538.00 
C 713.75 538.26 714.00 539.00 714.00 539.00
C 719.41 538.52 725.35 538.53 731.00 538.00
C 731.00 538.00 730.75 537.26 731.00 537.00
C 726.84 537.40 716.87 535.04 714.00 538.00 Z"/>
</g>
<g fill="None" fill-opacity="0.0" stroke="#002312" stroke-opacity="0.11" stroke-width="0.3"><path d="
M 300.00 539.00 
C 305.00 539.00 310.00 539.00 315.00 539.00
C 315.50 539.00 316.00 539.00 316.00 539.00
C 311.36 538.55 305.39 538.00 300.00 538.00
C 300.00 538.00 299.96 539.00 300.00 539.00 Z"/>
</g>
<g fill="None" fill-opacity="0.0" stroke="#001E12" stroke-opacity="0.11" stroke-width="0.3"><path d="
M 684.00 539.00 
C 684.50 539.00 685.00 539.00 685.00 539.00
C 690.00 539.00 695.00 539.00 700.00 539.00
C 699.96 539.00 700.00 538.00 700.00 538.00
C 694.60 538.00 688.72 538.54 684.00 539.00 Z"/>
</g>
<g fill="None" fill-opacity="0.0" stroke="#B8E2D4" stroke-opacity="0.80" stroke-width="0.3"><path d="
M 700.00 539.00 
C 704.61 539.00 709.41 539.40 714.00 539.00
C 714.00 539.00 713.75 538.26 714.00 538.00
C 709.43 538.44 704.59 538.00 700.00 538.00
C 700.00 538.00 699.96 539.00 700.00 539.00 Z"/>
</g>
<g fill="None" fill-opacity="0.0" stroke="#99C6B6" stroke-opacity="0.42" stroke-width="0.3"><path d="
M 326.00 540.00 
C 323.31 539.74 319.43 539.00 316.00 539.00
C 316.00 539.00 315.50 539.00 315.00 539.00
C 317.87 539.28 322.47 539.66 326.00 540.00 Z"/>
</g>
<g fill="None" fill-opacity="0.0" stroke="#9BC9B9" stroke-opacity="0.42" stroke-width="0.3"><path d="
M 674.00 540.00 
C 677.53 539.66 682.06 539.28 685.00 539.00
C 685.00 539.00 684.50 539.00 684.00 539.00
C 680.58 539.00 676.75 539.73 674.00 540.00 Z"/>
</g>
<g fill="None" fill-opacity="0.0" stroke="#A3D8C6" stroke-opacity="0.70" stroke-width="0.3"><path d="
M 335.00 540.00 
C 332.05 540.00 328.94 540.28 326.00 540.00
C 328.76 540.27 332.18 540.27 335.00 540.00 Z"/>
</g>
<g fill="None" fill-opacity="0.0" stroke="#A9D1C3" stroke-opacity="0.70" stroke-width="0.3"><path d="
M 674.00 540.00 
C 671.06 540.28 667.95 540.00 665.00 540.00
C 667.76 540.27 671.18 540.27 674.00 540.00 Z"/>
</g>
<g fill="None" fill-opacity="0.0" stroke="#9FC2B6" stroke-opacity="0.34" stroke-width="0.3"><path d="
M 382.00 547.00 
C 379.65 546.51 376.93 545.42 374.00 545.00
C 376.13 545.58 379.59 546.26 382.00 547.00 Z"/>
</g>
<g fill="None" fill-opacity="0.0" stroke="#9ED0BC" stroke-opacity="0.62" stroke-width="0.3"><path d="
M 389.00 548.00 
C 387.09 547.51 384.34 547.49 382.00 547.00
C 383.27 547.39 384.51 547.70 385.92 549.06 C 387.33 550.43 388.53 547.98 389.00 548.00 Z"/>
</g>
<g fill="None" fill-opacity="0.0" stroke="#B1D5C8" stroke-opacity="0.61" stroke-width="0.3"><path d="
M 373.00 574.00 
C 379.34 573.09 387.62 573.38 394.00 574.00
C 387.87 572.69 379.19 572.32 373.00 574.00 Z"/>
</g>
<g fill="None" fill-opacity="0.0" stroke="#B6D9CD" stroke-opacity="0.59" stroke-width="0.3"><path d="
M 605.00 574.00 
C 612.38 573.29 621.01 573.58 628.00 575.00
C 621.97 572.91 612.52 572.39 605.00 574.00 Z"/>
</g>
<g fill="None" fill-opacity="0.0" stroke="#A0C8BA" stroke-opacity="0.58" stroke-width="0.3"><path d="
M 555.00 590.00 
C 555.51 589.23 557.43 588.66 558.22 587.23 C 559.01 585.79 557.89 584.36 558.00 584.00
C 556.91 585.87 555.80 587.73 555.00 590.00 Z"/>
</g>
<g fill="None" fill-opacity="0.0" stroke="#9CCBBD" stroke-opacity="0.32" stroke-width="0.3"><path d="
M 502.00 592.00 
C 504.19 590.22 504.94 587.51 506.00 585.00
C 505.15 586.48 503.06 590.74 502.00 592.00 Z"/>
</g>
<g fill="None" fill-opacity="0.0" stroke="#A1D5C3" stroke-opacity="0.44" stroke-width="0.3"><path d="
M 451.00 645.00 
C 452.42 635.09 450.93 624.64 450.00 615.00
C 450.20 624.92 451.39 634.79 451.00 645.00 Z"/>
</g>
<g fill="None" fill-opacity="0.0" stroke="#9ED1C0" stroke-opacity="0.45" stroke-width="0.3"><path d="
M 549.00 645.00 
C 548.62 635.04 549.03 623.92 549.00 615.00
C 547.64 624.75 547.66 635.64 549.00 645.00 Z"/>
</g>
<g fill="None" fill-opacity="0.0" stroke="#92B9AC" stroke-opacity="0.73" stroke-width="0.3"><path d="
M 515.00 626.00 
C 515.00 625.96 516.00 626.00 516.00 626.00
C 516.21 622.21 517.11 619.49 518.00 616.00
C 516.55 619.61 515.18 621.25 515.00 626.00 Z"/>
</g>
<g fill="None" fill-opacity="0.0" stroke="#9BC9B9" stroke-opacity="0.59" stroke-width="0.3"><path d="
M 194.00 619.00 
C 203.36 620.49 213.45 621.37 223.00 622.00
C 219.26 620.45 213.49 620.16 208.00 620.00 C 202.51 619.84 198.72 618.97 194.00 619.00 Z"/>
</g>
<g fill="None" fill-opacity="0.0" stroke="#9CCFBE" stroke-opacity="0.71" stroke-width="0.3"><path d="
M 761.00 621.00 
C 772.78 621.24 785.98 621.79 797.00 620.00
C 786.43 620.60 772.02 620.15 761.00 621.00 Z"/>
</g>
<g fill="None" fill-opacity="0.0" stroke="#9BC7B9" stroke-opacity="0.60" stroke-width="0.3"><path d="
M 225.00 621.00 
C 231.26 619.39 240.01 620.97 246.00 620.00
C 240.07 620.32 229.81 617.99 225.00 621.00 Z"/>
</g>
<g fill="None" fill-opacity="0.0" stroke="#9EC7BA" stroke-opacity="0.31" stroke-width="0.3"><path d="
M 485.00 634.00 
C 485.03 631.01 484.66 625.44 484.00 622.00
C 484.31 625.91 484.68 630.70 485.00 634.00 Z"/>
</g>
<g fill="None" fill-opacity="0.0" stroke="#9AC3B5" stroke-opacity="0.28" stroke-width="0.3"><path d="
M 516.00 658.00 
C 515.43 647.55 515.43 636.45 516.00 626.00
C 516.00 626.00 515.00 625.96 515.00 626.00
C 514.60 636.45 514.42 648.29 516.00 658.00 Z"/>
</g>
<g fill="None" fill-opacity="0.0" stroke="#9DC7B8" stroke-opacity="0.36" stroke-width="0.3"><path d="
M 410.00 659.00 
C 413.93 657.40 416.08 655.22 419.00 652.00
C 416.42 654.25 412.76 657.32 410.00 659.00 Z"/>
</g>
<g fill="None" fill-opacity="0.0" stroke="#ACD7C9" stroke-opacity="0.45" stroke-width="0.3"><path d="
M 359.00 672.00 
C 363.10 670.18 370.72 671.39 375.00 670.00
C 371.85 670.40 360.63 669.49 359.00 672.00 Z"/>
</g>
<g fill="None" fill-opacity="0.0" stroke="#A1C9BA" stroke-opacity="0.58" stroke-width="0.3"><path d="
M 520.00 679.00 
C 519.15 676.30 519.58 673.77 519.00 671.00
C 519.00 671.14 516.35 672.86 518.01 674.99 C 519.67 677.13 518.96 677.05 520.00 679.00 Z"/>
</g>
<g fill="None" fill-opacity="0.0" stroke="#BAE2D5" stroke-opacity="0.50" stroke-width="0.3"><path d="
M 641.00 674.00 
C 641.00 673.00 641.00 672.00 641.00 671.00
C 638.02 670.78 634.97 671.29 632.00 671.00
C 631.78 670.94 640.01 671.85 641.00 674.00 Z"/>
</g>
<g fill="None" fill-opacity="0.0" stroke="#AADDCA" stroke-opacity="0.44" stroke-width="0.3"><path d="
M 361.00 682.00 
C 360.48 679.01 359.88 676.53 359.00 674.00
C 358.74 677.73 360.09 679.19 361.00 682.00 Z"/>
</g>
<g fill="None" fill-opacity="0.0" stroke="#9ECEBE" stroke-opacity="0.47" stroke-width="0.3"><path d="
M 424.00 699.00 
C 428.97 695.41 432.05 692.96 436.00 688.00
C 433.28 690.33 427.85 695.11 424.00 699.00 Z"/>
</g>
<g fill="None" fill-opacity="0.0" stroke="#A2C3B7" stroke-opacity="0.35" stroke-width="0.3"><path d="
M 388.00 708.00 
C 392.82 708.98 398.13 708.87 403.00 708.00
C 399.49 708.26 392.60 708.40 388.00 708.00 Z"/>
</g>
<g fill="None" fill-opacity="0.0" stroke="#A1C1B5" stroke-opacity="0.35" stroke-width="0.3"><path d="
M 597.00 708.00 
C 601.80 708.86 607.12 708.99 612.00 708.00
C 607.42 708.40 600.63 708.27 597.00 708.00 Z"/>
</g>
<g fill="None" fill-opacity="0.0" stroke="#000000" stroke-opacity="0.00" stroke-width="0.3"><path d="
M 477.00 744.00 
C 473.23 747.35 470.04 750.34 466.00 753.00
C 458.29 758.08 451.24 762.86 443.00 767.00
C 447.16 767.65 454.58 769.62 461.00 769.00
C 470.23 767.02 478.36 764.33 486.00 758.00
C 490.45 754.31 495.23 749.62 499.00 745.00
C 504.82 747.59 508.95 754.37 514.00 758.00
C 521.59 764.30 529.74 767.02 539.00 769.00
C 545.31 769.61 553.01 767.41 557.00 767.00
C 544.59 761.61 533.74 752.73 523.25 744.75 C 512.75 736.78 504.96 724.53 499.00 714.00
C 495.90 725.58 486.97 737.83 477.00 744.00 Z"/>
</g>
<g fill="None" fill-opacity="0.0" stroke="#BFDFD4" stroke-opacity="0.69" stroke-width="0.3"><path d="
M 382.00 724.00 
C 379.17 723.73 375.83 723.73 373.00 724.00
C 374.92 724.01 380.01 724.01 382.00 724.00 Z"/>
</g>
<g fill="None" fill-opacity="0.0" stroke="#BEE5D8" stroke-opacity="0.68" stroke-width="0.3"><path d="
M 628.00 725.00 
C 625.24 724.67 621.53 723.67 618.00 724.00
C 620.32 724.01 624.87 724.94 628.00 725.00 Z"/>
</g>
<g fill="None" fill-opacity="0.0" stroke="#93B8B5" stroke-opacity="0.06" stroke-width="0.3"><path d="
M 429.00 731.00 
C 423.97 731.62 418.06 731.28 413.00 731.00
C 418.02 731.82 423.87 732.27 429.00 731.00 Z"/>
</g>
<g fill="None" fill-opacity="0.0" stroke="#9DB7B1" stroke-opacity="0.06" stroke-width="0.3"><path d="
M 587.00 731.00 
C 582.20 731.26 576.78 731.49 572.00 731.00
C 576.83 732.07 582.14 731.79 587.00 731.00 Z"/>
</g>
<g fill="None" fill-opacity="0.0" stroke="#A4D0BF" stroke-opacity="0.38" stroke-width="0.3"><path d="
M 466.00 753.00 
C 470.04 750.34 473.23 747.35 477.00 744.00
C 472.88 746.55 469.77 749.72 466.00 753.00 Z"/>
</g>
<g fill="None" fill-opacity="0.0" stroke="#ABCCC1" stroke-opacity="0.45" stroke-width="0.3"><path d="
M 486.00 758.00 
C 492.45 756.98 495.06 748.84 501.00 747.00
C 504.08 752.12 509.27 755.22 514.00 758.00
C 508.95 754.37 504.82 747.59 499.00 745.00
C 495.23 749.62 490.45 754.31 486.00 758.00 Z"/>
</g>
<g fill="None" fill-opacity="0.0" stroke="#A2CCBE" stroke-opacity="0.57" stroke-width="0.3"><path d="
M 461.00 769.00 
C 454.58 769.62 447.16 767.65 443.00 767.00
C 442.25 765.09 440.52 768.17 440.00 769.00
C 446.53 770.77 454.81 770.33 461.00 769.00 Z"/>
</g>
<g fill="None" fill-opacity="0.0" stroke="#9AC9B9" stroke-opacity="0.55" stroke-width="0.3"><path d="
M 557.00 767.00 
C 553.01 767.41 545.31 769.61 539.00 769.00
C 542.55 769.76 562.95 770.89 557.00 767.00 Z"/>
</g>
<g fill="None" fill-opacity="0.0" stroke="#000000" stroke-opacity="0.00" stroke-width="0.3"><path d="
M 499.00 864.00 
C 499.88 863.32 500.15 864.09 501.00 863.00
C 507.75 854.37 509.93 841.54 517.08 833.08 C 524.22 824.61 528.93 813.21 536.00 806.00
C 537.02 803.55 536.20 802.24 534.00 801.00
C 520.52 797.42 508.93 788.60 501.00 777.00
C 489.93 787.24 478.77 797.92 463.00 803.00
C 469.13 813.15 476.87 822.61 482.25 832.75 C 487.63 842.89 497.41 852.25 499.00 864.00 Z"/>
</g>
<g fill="None" fill-opacity="0.0" stroke="#9ED3BF" stroke-opacity="0.65" stroke-width="0.3"><path d="
M 534.00 801.00 
C 536.20 802.24 537.02 803.55 536.00 806.00
C 540.33 801.58 538.52 801.63 534.00 801.00 Z"/>
</g>
<g fill="None" fill-opacity="0.0" stroke="#97C0B1" stroke-opacity="0.42" stroke-width="0.3"><path d="
M 544.00 851.00 
C 545.99 848.14 548.18 845.03 550.00 842.00
C 547.35 845.07 545.74 847.32 544.00 851.00 Z"/>
</g>
<g fill="None" fill-opacity="0.0" stroke="#ABDECD" stroke-opacity="0.82" stroke-width="0.3"><path d="
M 499.00 864.00 
C 497.16 865.76 499.17 870.09 500.00 872.00
C 500.76 869.21 500.63 864.78 501.00 863.00
C 500.15 864.09 499.88 863.32 499.00 864.00 Z"/>
</g>
<g fill="#000000" fill-opacity="0.00" stroke="None">
<path d="
M 0.00 1000.00 
L 1000.00 1000.00
L 1000.00 0.00
L 0.00 0.00
L 0.00 1000.00
M 357.00 103.00 
C 344.79 129.11 335.59 159.75 331.00 188.00
C 330.50 191.07 330.35 193.91 330.00 197.00
C 329.28 203.41 328.25 209.52 328.00 216.00
C 327.86 219.68 327.29 224.03 327.00 227.00
C 326.24 234.82 326.24 244.18 327.00 252.00
C 328.73 253.67 328.00 257.55 328.00 260.00
C 328.00 263.00 328.00 266.00 328.00 269.00
C 328.36 272.74 329.47 277.72 330.00 282.00
C 334.93 321.80 351.76 367.40 376.00 400.00
C 377.93 402.59 380.21 405.10 382.00 408.00
C 387.81 417.38 395.23 424.68 401.00 434.00
C 409.94 444.46 422.19 456.58 433.00 466.00
C 440.79 472.79 449.60 479.11 457.00 486.00
C 460.60 489.36 460.03 490.28 456.00 490.00
C 436.51 488.66 416.21 477.37 397.98 472.03 C 379.74 466.68 360.30 458.24 343.92 449.08 C 327.55 439.92 310.82 431.60 298.00 418.00
C 288.52 410.06 280.11 401.22 272.00 392.00
C 250.15 370.79 236.73 334.05 233.00 304.00
C 232.05 300.16 231.09 296.54 231.00 292.00
C 230.95 289.36 231.25 286.62 231.00 284.00
C 229.83 271.93 229.80 258.45 231.00 246.00
C 231.38 242.07 232.07 238.77 233.00 235.00
C 242.12 198.17 266.00 157.29 299.00 136.00
C 301.74 133.75 304.30 130.97 307.00 129.00
C 312.23 125.19 317.17 119.78 322.75 116.75 C 328.32 113.71 334.28 107.29 339.70 105.70 C 345.11 104.10 352.49 94.49 358.00 96.00
C 361.86 97.06 357.90 101.07 357.00 103.00
M 769.00 252.00 
C 769.94 261.70 770.98 273.59 770.00 284.00
C 769.73 286.83 769.09 289.87 769.00 293.00
C 768.94 295.26 768.28 297.40 768.00 299.00
C 767.52 301.75 767.52 304.28 767.00 307.00
C 758.02 354.41 734.54 389.77 698.00 421.00
C 695.57 423.08 693.67 425.15 691.00 427.00
C 676.75 436.87 663.45 446.15 647.32 453.32 C 631.19 460.49 615.07 469.33 597.77 473.77 C 580.47 478.21 562.30 488.74 544.00 490.00
C 539.89 490.28 539.48 489.27 543.00 486.00
C 550.04 479.44 559.63 470.77 568.00 466.00
C 575.51 459.83 584.87 450.46 591.00 443.00
C 600.70 425.97 616.16 414.70 625.32 397.32 C 634.48 379.94 646.09 363.98 652.78 344.78 C 659.46 325.57 667.42 302.80 670.00 282.00
C 670.53 277.76 671.64 272.68 672.00 269.00
C 672.00 263.23 671.92 257.04 673.00 252.00
C 674.17 239.90 672.24 227.90 672.00 216.00
C 671.36 184.15 661.39 152.24 651.00 123.00
C 650.42 121.37 649.74 118.88 649.00 117.00
C 645.02 111.08 636.76 92.63 647.08 97.92 C 657.39 103.22 662.70 106.90 671.25 112.75 C 679.80 118.61 687.06 122.97 694.70 129.30 C 702.34 135.64 708.17 141.13 715.25 147.75 C 722.32 154.38 727.82 161.09 733.70 168.30 C 739.59 175.50 744.58 183.76 749.92 192.08 C 755.26 200.40 758.37 209.25 761.98 219.02 C 765.58 228.80 769.00 240.85 769.00 252.00
M 825.00 222.00 
C 836.21 239.74 838.85 258.25 845.99 278.01 C 853.14 297.77 855.98 322.47 858.00 344.00
C 858.50 349.34 858.50 355.66 858.00 361.00
C 853.77 406.08 837.82 446.98 800.00 474.00
C 796.78 476.30 793.50 478.92 790.00 481.00
C 766.70 494.83 741.78 503.29 715.00 508.00
C 711.65 508.59 708.44 508.51 705.00 509.00
C 703.15 509.26 700.46 509.90 698.00 510.00
C 692.82 510.21 688.22 510.72 683.00 511.00
C 647.89 512.91 611.24 528.53 581.31 544.30 C 551.37 560.08 526.51 582.67 518.00 616.00
C 517.11 619.49 516.21 622.21 516.00 626.00
C 515.43 636.45 515.43 647.55 516.00 658.00
C 516.26 662.88 518.04 666.45 519.00 671.00
C 519.58 673.77 519.15 676.30 520.00 679.00
C 532.75 702.89 542.51 724.47 572.00 731.00
C 576.78 731.49 582.20 731.26 587.00 731.00
C 597.80 730.41 607.48 724.99 618.00 724.00
C 621.53 723.67 625.24 724.67 628.00 725.00
C 636.93 725.18 653.65 731.31 644.25 738.25 C 634.86 745.20 630.81 750.23 622.75 756.75 C 614.69 763.28 610.04 769.86 603.10 776.10 C 596.16 782.34 590.50 790.10 584.23 797.23 C 577.96 804.36 572.72 811.17 566.75 818.75 C 560.78 826.33 556.48 834.49 550.00 842.00
C 548.18 845.03 545.99 848.14 544.00 851.00
C 539.75 859.99 535.12 867.28 529.70 876.69 C 524.27 886.11 520.76 893.72 516.01 904.01 C 511.25 914.30 508.12 919.64 503.69 931.69 C 499.27 943.75 493.70 925.09 490.08 916.92 C 486.45 908.76 482.11 897.64 477.69 889.31 C 473.27 880.97 467.21 871.48 463.03 862.97 C 458.84 854.47 452.10 847.11 447.23 838.77 C 442.36 830.43 435.98 822.92 430.23 814.77 C 424.48 806.62 418.40 800.44 412.25 792.75 C 406.09 785.06 399.60 778.68 392.75 771.25 C 385.90 763.82 378.64 758.70 372.10 751.90 C 365.56 745.10 353.59 740.11 352.00 731.00
C 359.04 729.14 365.37 724.41 373.00 724.00
C 375.83 723.73 379.17 723.73 382.00 724.00
C 392.54 724.99 402.16 730.41 413.00 731.00
C 418.06 731.28 423.97 731.62 429.00 731.00
C 469.63 720.94 488.97 675.06 485.00 634.00
C 484.68 630.70 484.31 625.91 484.00 622.00
C 481.37 588.87 454.96 567.34 428.77 550.23 C 402.58 533.12 368.34 519.83 337.00 514.00
C 334.35 513.51 331.19 512.41 329.00 512.00
C 325.14 511.70 321.76 511.26 318.00 511.00
C 312.49 510.63 307.54 510.11 302.00 510.00
C 287.61 509.71 271.60 506.07 258.00 502.00
C 254.97 501.09 252.06 499.90 249.00 499.00
C 225.59 492.09 199.59 477.67 183.00 459.00
C 179.54 455.11 175.25 450.80 172.00 447.00
C 171.24 446.11 170.64 444.93 170.00 444.00
C 168.37 441.65 166.48 439.41 165.00 437.00
C 143.74 402.30 139.65 361.08 145.00 320.00
C 145.41 316.87 146.58 313.56 147.00 311.00
C 147.83 295.61 153.11 278.60 158.77 264.77 C 164.43 250.94 166.03 233.95 175.00 222.00
C 179.17 216.45 179.82 221.41 180.00 226.00
C 180.14 229.65 180.00 233.34 180.00 237.00
C 180.23 239.34 181.75 243.32 182.00 246.00
C 182.94 256.00 184.47 265.29 185.00 275.00
C 185.35 277.16 186.51 280.38 187.00 283.00
C 195.35 327.89 214.91 371.13 245.00 406.00
C 249.86 411.63 255.21 417.05 261.00 422.00
C 262.88 423.61 264.50 425.08 266.00 427.00
C 266.35 427.13 266.81 427.68 267.00 428.00
C 272.02 430.36 276.06 435.30 280.00 438.00
C 307.77 451.58 335.23 469.69 361.70 484.30 C 388.16 498.92 421.12 510.77 443.00 531.00
C 449.27 535.57 454.95 540.03 461.00 545.00
C 466.60 548.40 471.95 554.69 476.70 559.30 C 481.45 563.90 485.97 572.77 490.10 576.90 C 494.23 581.03 497.15 595.95 502.00 592.00
C 503.06 590.74 505.15 586.48 506.00 585.00
C 517.83 556.94 545.84 536.73 571.75 520.75 C 597.65 504.77 628.21 488.91 656.03 475.03 C 683.84 461.15 710.23 440.24 737.00 425.00
C 741.52 421.13 747.02 415.43 751.00 411.00
C 789.31 368.32 811.56 312.69 818.00 255.00
C 818.48 250.72 819.64 245.71 820.00 242.00
C 820.00 239.00 820.00 236.00 820.00 233.00
C 820.00 227.92 818.84 212.25 825.00 222.00
M 924.00 458.00 
C 924.68 465.27 923.63 473.52 923.00 480.00
C 923.00 492.09 921.51 502.68 919.00 514.00
C 918.44 516.53 917.64 518.88 917.00 521.00
C 908.17 578.90 849.19 611.53 797.00 620.00
C 785.98 621.79 772.78 621.24 761.00 621.00
C 736.41 620.51 712.43 610.12 689.92 603.08 C 667.42 596.03 650.65 579.61 628.00 575.00
C 621.01 573.58 612.38 573.29 605.00 574.00
C 587.20 577.82 573.33 586.85 569.00 605.00 C 564.67 623.16 567.18 641.83 582.23 652.77 C 597.28 663.71 613.92 669.25 632.00 671.00
C 634.97 671.29 638.02 670.78 641.00 671.00
C 641.00 672.00 641.00 673.00 641.00 674.00
C 643.07 681.52 636.13 690.33 632.25 696.25 C 628.36 702.16 619.18 707.37 612.00 708.00
C 607.12 708.99 601.80 708.86 597.00 708.00
C 566.86 702.60 550.12 674.23 549.00 645.00
C 547.66 635.64 547.64 624.75 549.00 615.00
C 550.19 606.45 552.16 598.09 555.00 590.00
C 555.80 587.73 556.91 585.87 558.00 584.00
C 578.09 549.45 626.91 540.00 665.00 540.00
C 667.95 540.00 671.06 540.28 674.00 540.00
C 676.75 539.73 680.58 539.00 684.00 539.00
C 688.72 538.54 694.60 538.00 700.00 538.00
C 704.59 538.00 709.43 538.44 714.00 538.00
C 716.87 535.04 726.84 537.40 731.00 537.00
C 732.96 534.97 738.16 536.11 741.00 536.00
C 747.14 535.77 752.84 534.71 759.00 534.00
C 760.70 533.57 762.91 531.52 765.00 531.00
C 768.82 530.04 772.23 529.29 776.00 528.00
C 779.23 526.89 782.80 526.29 786.00 525.00
C 805.31 517.24 823.27 505.49 838.00 492.00
C 846.35 484.36 854.58 476.51 862.00 468.00
C 882.24 444.78 897.46 420.29 910.00 392.00
C 916.95 394.63 914.72 403.87 917.33 410.67 C 919.94 417.47 920.46 425.70 921.78 433.22 C 923.10 440.74 921.89 450.60 924.00 458.00
M 138.00 468.00 
C 142.90 473.63 148.19 481.23 154.00 486.00
C 179.62 502.87 200.72 522.89 232.00 531.00
C 234.30 531.60 237.05 532.45 239.00 533.00
C 244.89 534.67 251.79 535.66 258.00 536.00
C 267.04 536.49 275.90 536.15 285.00 537.00
C 289.80 537.45 294.86 538.00 300.00 538.00
C 305.39 538.00 311.36 538.55 316.00 539.00
C 319.43 539.00 323.31 539.74 326.00 540.00
C 328.94 540.28 332.05 540.00 335.00 540.00
C 348.11 540.00 361.21 543.17 374.00 545.00
C 376.93 545.42 379.65 546.51 382.00 547.00
C 384.34 547.49 387.09 547.51 389.00 548.00
C 422.18 556.60 449.26 577.91 450.00 615.00
C 450.93 624.64 452.42 635.09 451.00 645.00
C 450.40 660.67 445.24 676.41 436.00 688.00
C 432.05 692.96 428.97 695.41 424.00 699.00
C 418.30 704.76 410.74 706.61 403.00 708.00
C 398.13 708.87 392.82 708.98 388.00 708.00
C 374.79 706.84 363.19 694.73 361.00 682.00
C 360.09 679.19 358.74 677.73 359.00 674.00
C 359.03 673.50 358.77 672.35 359.00 672.00
C 360.63 669.49 371.85 670.40 375.00 670.00
C 386.85 666.15 398.63 663.63 410.00 659.00
C 412.76 657.32 416.42 654.25 419.00 652.00
C 431.41 638.31 436.14 622.72 431.02 603.98 C 425.91 585.23 411.50 577.75 394.00 574.00
C 387.62 573.38 379.34 573.09 373.00 574.00
C 351.51 579.83 335.88 593.69 314.31 601.31 C 292.73 608.92 269.67 618.72 246.00 620.00
C 240.01 620.97 231.26 619.39 225.00 621.00
C 224.22 621.49 224.31 622.09 223.00 622.00
C 213.45 621.37 203.36 620.49 194.00 619.00
C 161.20 613.78 133.72 598.11 110.75 574.25 C 87.78 550.39 79.13 514.38 76.00 481.00
C 75.26 473.15 75.26 463.85 76.00 456.00
C 76.83 447.17 77.84 437.87 79.00 429.00
C 79.42 425.80 80.50 422.65 81.00 420.00
C 81.72 410.58 85.06 402.36 86.00 393.00
C 94.01 393.63 94.99 404.60 99.11 410.89 C 103.22 417.19 106.38 424.84 110.77 431.23 C 115.16 437.62 119.09 444.56 123.71 450.30 C 128.32 456.03 132.83 462.81 138.00 468.00 Z"/>
</g>
<g fill="#77C2A8" fill-opacity="0.98" stroke="None">
<path d="
M 307.00 129.00 
C 304.86 131.27 302.15 133.97 299.00 136.00
C 266.00 157.29 242.12 198.17 233.00 235.00
C 232.71 238.23 231.77 242.42 231.00 246.00
C 229.80 258.45 229.83 271.93 231.00 284.00
C 230.99 283.95 231.90 289.31 232.00 292.00
C 232.16 296.13 232.49 299.89 233.00 304.00
C 236.73 334.05 250.15 370.79 272.00 392.00
C 280.74 400.49 289.68 409.18 298.00 418.00
C 310.82 431.60 327.55 439.92 343.92 449.08 C 360.30 458.24 379.74 466.68 397.98 472.03 C 416.21 477.37 436.51 488.66 456.00 490.00
C 458.04 489.33 458.14 488.21 457.00 486.00
C 449.60 479.11 440.79 472.79 433.00 466.00
C 421.75 459.18 408.19 445.61 401.00 434.00
C 395.23 424.68 387.81 417.38 382.00 408.00
C 379.71 405.42 377.17 402.51 376.00 400.00
C 351.76 367.40 334.93 321.80 330.00 282.00
C 328.68 277.72 328.00 274.19 328.00 269.00
C 328.00 266.00 328.00 263.00 328.00 260.00
C 327.70 258.55 326.00 255.46 326.00 252.00
C 326.00 243.65 326.27 234.58 327.00 227.00
C 327.35 223.34 327.57 219.03 328.00 216.00
C 328.25 209.52 329.28 203.41 330.00 197.00
C 329.78 193.23 330.37 189.67 331.00 188.00
C 335.59 159.75 344.79 129.11 357.00 103.00
C 357.29 101.63 356.66 98.19 358.00 96.00
C 352.49 94.49 345.11 104.10 339.70 105.70 C 334.28 107.29 328.32 113.71 322.75 116.75 C 317.17 119.78 312.23 125.19 307.00 129.00 Z"/>
</g>
<g fill="#A1C6BA" fill-opacity="0.56" stroke="None">
<path d="
M 357.00 103.00 
C 357.90 101.07 361.86 97.06 358.00 96.00
C 356.66 98.19 357.29 101.63 357.00 103.00 Z"/>
</g>
<g fill="#77C2A8" fill-opacity="0.98" stroke="None">
<path d="
M 649.00 117.00 
C 651.00 119.98 650.56 120.36 651.00 123.00
C 661.39 152.24 671.36 184.15 672.00 216.00
C 674.06 226.84 675.38 240.89 673.00 252.00
C 671.92 257.04 672.00 263.23 672.00 269.00
C 672.00 274.21 671.31 277.76 670.00 282.00
C 667.42 302.80 659.46 325.57 652.78 344.78 C 646.09 363.98 634.48 379.94 625.32 397.32 C 616.16 414.70 600.70 425.97 591.00 443.00
C 586.48 450.93 575.90 461.50 568.00 466.00
C 559.63 470.77 550.04 479.44 543.00 486.00
C 541.88 488.17 541.78 489.27 544.00 490.00
C 562.30 488.74 580.47 478.21 597.77 473.77 C 615.07 469.33 631.19 460.49 647.32 453.32 C 663.45 446.15 676.75 436.87 691.00 427.00
C 693.52 424.65 696.22 421.94 698.00 421.00
C 734.54 389.77 758.02 354.41 767.00 307.00
C 766.99 303.50 767.37 300.47 768.00 299.00
C 768.28 297.40 768.94 295.26 769.00 293.00
C 768.84 290.58 766.48 286.44 769.00 284.00
C 768.04 273.54 769.00 262.51 769.00 252.00
C 769.00 240.85 765.58 228.80 761.98 219.02 C 758.37 209.25 755.26 200.40 749.92 192.08 C 744.58 183.76 739.59 175.50 733.70 168.30 C 727.82 161.09 722.32 154.38 715.25 147.75 C 708.17 141.13 702.34 135.64 694.70 129.30 C 687.06 122.97 679.80 118.61 671.25 112.75 C 662.70 106.90 657.39 103.22 647.08 97.92 C 636.76 92.63 645.02 111.08 649.00 117.00 Z"/>
</g>
<g fill="#A2D0C1" fill-opacity="0.62" stroke="None">
<path d="
M 651.00 123.00 
C 650.56 120.36 651.00 119.98 649.00 117.00
C 649.74 118.88 650.42 121.37 651.00 123.00 Z"/>
</g>
<g fill="#A1C8B9" fill-opacity="0.46" stroke="None">
<path d="
M 299.00 136.00 
C 302.15 133.97 304.86 131.27 307.00 129.00
C 304.30 130.97 301.74 133.75 299.00 136.00 Z"/>
</g>
<g fill="#A9D5C6" fill-opacity="0.71" stroke="None">
<path d="
M 330.00 197.00 
C 330.35 193.91 330.50 191.07 331.00 188.00
C 330.37 189.67 329.78 193.23 330.00 197.00 Z"/>
</g>
<g fill="#669784" fill-opacity="0.08" stroke="None">
<path d="
M 327.00 227.00 
C 327.29 224.03 327.86 219.68 328.00 216.00
C 327.57 219.03 327.35 223.34 327.00 227.00 Z"/>
</g>
<g fill="#90B3A9" fill-opacity="0.40" stroke="None">
<path d="
M 673.00 252.00 
C 675.38 240.89 674.06 226.84 672.00 216.00
C 672.24 227.90 674.17 239.90 673.00 252.00 Z"/>
</g>
<g fill="#A1C3B6" fill-opacity="0.20" stroke="None">
<path d="
M 820.00 233.00 
C 820.38 229.05 821.04 223.22 822.00 219.00
C 823.88 219.24 823.46 221.55 825.00 222.00
C 818.84 212.25 820.00 227.92 820.00 233.00 Z"/>
</g>
<g fill="#97C1B3" fill-opacity="0.36" stroke="None">
<path d="
M 175.00 222.00 
C 175.64 221.39 177.48 221.24 178.00 220.00
C 179.95 221.55 177.80 224.90 180.00 226.00
C 179.82 221.41 179.17 216.45 175.00 222.00 Z"/>
</g>
<g fill="#78C2A9" fill-opacity="0.98" stroke="None">
<path d="
M 820.00 233.00 
C 820.00 236.00 820.00 239.00 820.00 242.00
C 820.00 246.92 818.96 250.86 818.00 255.00
C 811.56 312.69 789.31 368.32 751.00 411.00
C 748.45 415.36 742.46 421.89 737.00 425.00
C 710.23 440.24 683.84 461.15 656.03 475.03 C 628.21 488.91 597.65 504.77 571.75 520.75 C 545.84 536.73 517.83 556.94 506.00 585.00
C 504.94 587.51 504.19 590.22 502.00 592.00
C 497.15 595.95 494.23 581.03 490.10 576.90 C 485.97 572.77 481.45 563.90 476.70 559.30 C 471.95 554.69 466.60 548.40 461.00 545.00
C 454.64 541.15 448.31 535.91 443.00 531.00
C 421.12 510.77 388.16 498.92 361.70 484.30 C 335.23 469.69 307.77 451.58 280.00 438.00
C 275.96 436.03 269.30 431.86 267.00 428.00
C 266.81 427.68 266.35 427.13 266.00 427.00
C 263.85 426.23 262.10 425.26 261.00 423.00
C 254.72 422.33 247.25 409.47 245.00 406.00
C 214.91 371.13 195.35 327.89 187.00 283.00
C 186.11 280.27 185.18 278.40 185.00 275.00
C 184.47 265.29 182.94 256.00 182.00 246.00
C 181.64 244.28 180.00 240.75 180.00 237.00
C 180.00 233.34 180.14 229.65 180.00 226.00
C 177.80 224.90 179.95 221.55 178.00 220.00
C 177.48 221.24 175.64 221.39 175.00 222.00
C 166.03 233.95 164.43 250.94 158.77 264.77 C 153.11 278.60 147.83 295.61 147.00 311.00
C 146.81 314.51 145.73 317.13 145.00 320.00
C 139.65 361.08 143.74 402.30 165.00 437.00
C 166.24 438.50 167.60 439.46 169.75 441.25 C 171.91 443.03 170.51 445.86 170.00 444.00
C 170.64 444.93 171.24 446.11 172.00 447.00
C 176.49 451.03 179.68 453.75 183.00 459.00
C 199.59 477.67 225.59 492.09 249.00 499.00
C 250.29 499.12 252.16 498.00 254.22 498.78 C 256.28 499.56 256.97 501.48 258.00 502.00
C 271.60 506.07 287.61 509.71 302.00 510.00
C 307.32 509.59 312.66 510.04 318.00 511.00
C 321.76 511.26 325.14 511.70 329.00 512.00
C 332.37 512.26 334.28 513.12 337.00 514.00
C 368.34 519.83 402.58 533.12 428.77 550.23 C 454.96 567.34 481.37 588.87 484.00 622.00
C 484.66 625.44 485.03 631.01 485.00 634.00
C 488.97 675.06 469.63 720.94 429.00 731.00
C 423.87 732.27 418.02 731.82 413.00 731.00
C 402.16 730.41 392.54 724.99 382.00 724.00
C 380.01 724.01 374.92 724.01 373.00 724.00
C 365.37 724.41 359.04 729.14 352.00 731.00
C 353.59 740.11 365.56 745.10 372.10 751.90 C 378.64 758.70 385.90 763.82 392.75 771.25 C 399.60 778.68 406.09 785.06 412.25 792.75 C 418.40 800.44 424.48 806.62 430.23 814.77 C 435.98 822.92 442.36 830.43 447.23 838.77 C 452.10 847.11 458.84 854.47 463.03 862.97 C 467.21 871.48 473.27 880.97 477.69 889.31 C 482.11 897.64 486.45 908.76 490.08 916.92 C 493.70 925.09 499.27 943.75 503.69 931.69 C 508.12 919.64 511.25 914.30 516.01 904.01 C 520.76 893.72 524.27 886.11 529.70 876.69 C 535.12 867.28 539.75 859.99 544.00 851.00
C 545.74 847.32 547.35 845.07 550.00 842.00
C 556.48 834.49 560.78 826.33 566.75 818.75 C 572.72 811.17 577.96 804.36 584.23 797.23 C 590.50 790.10 596.16 782.34 603.10 776.10 C 610.04 769.86 614.69 763.28 622.75 756.75 C 630.81 750.23 634.86 745.20 644.25 738.25 C 653.65 731.31 636.93 725.18 628.00 725.00
C 624.87 724.94 620.32 724.01 618.00 724.00
C 607.48 724.99 597.80 730.41 587.00 731.00
C 582.14 731.79 576.83 732.07 572.00 731.00
C 542.51 724.47 532.75 702.89 520.00 679.00
C 518.96 677.05 519.67 677.13 518.01 674.99 C 516.35 672.86 519.00 671.14 519.00 671.00
C 518.04 666.45 516.26 662.88 516.00 658.00
C 514.42 648.29 514.60 636.45 515.00 626.00
C 515.18 621.25 516.55 619.61 518.00 616.00
C 526.51 582.67 551.37 560.08 581.31 544.30 C 611.24 528.53 647.89 512.91 683.00 511.00
C 688.11 510.17 692.97 509.61 698.00 510.00
C 700.46 509.90 703.15 509.26 705.00 509.00
C 708.86 507.78 711.31 507.99 715.00 508.00
C 741.78 503.29 766.70 494.83 790.00 481.00
C 792.93 478.50 796.22 476.20 800.00 474.00
C 837.82 446.98 853.77 406.08 858.00 361.00
C 857.99 356.37 857.99 348.55 858.00 344.00
C 855.98 322.47 853.14 297.77 845.99 278.01 C 838.85 258.25 836.21 239.74 825.00 222.00
C 823.46 221.55 823.88 219.24 822.00 219.00
C 821.04 223.22 820.38 229.05 820.00 233.00
M 557.00 767.00 
C 562.95 770.89 542.55 769.76 539.00 769.00
C 529.74 767.02 521.59 764.30 514.00 758.00
C 509.27 755.22 504.08 752.12 501.00 747.00
C 495.06 748.84 492.45 756.98 486.00 758.00
C 478.36 764.33 470.23 767.02 461.00 769.00
C 454.81 770.33 446.53 770.77 440.00 769.00
C 440.52 768.17 442.25 765.09 443.00 767.00
C 451.24 762.86 458.29 758.08 466.00 753.00
C 469.77 749.72 472.88 746.55 477.00 744.00
C 486.97 737.83 495.90 725.58 499.00 714.00
C 504.96 724.53 512.75 736.78 523.25 744.75 C 533.74 752.73 544.59 761.61 557.00 767.00
M 534.00 801.00 
C 538.52 801.63 540.33 801.58 536.00 806.00
C 528.93 813.21 524.22 824.61 517.08 833.08 C 509.93 841.54 507.75 854.37 501.00 863.00
C 500.63 864.78 500.76 869.21 500.00 872.00
C 499.17 870.09 497.16 865.76 499.00 864.00
C 497.41 852.25 487.63 842.89 482.25 832.75 C 476.87 822.61 469.13 813.15 463.00 803.00
C 478.77 797.92 489.93 787.24 501.00 777.00
C 508.93 788.60 520.52 797.42 534.00 801.00 Z"/>
</g>
<g fill="#9FBEB5" fill-opacity="0.39" stroke="None">
<path d="
M 326.00 252.00 
C 326.00 251.96 327.00 252.00 327.00 252.00
C 326.24 244.18 326.24 234.82 327.00 227.00
C 326.27 234.58 326.00 243.65 326.00 252.00 Z"/>
</g>
<g fill="#AFD8C6" fill-opacity="0.36" stroke="None">
<path d="
M 231.00 246.00 
C 231.77 242.42 232.71 238.23 233.00 235.00
C 232.07 238.77 231.38 242.07 231.00 246.00 Z"/>
</g>
<g fill="#A8CABD" fill-opacity="0.49" stroke="None">
<path d="
M 182.00 246.00 
C 181.75 243.32 180.23 239.34 180.00 237.00
C 180.00 240.75 181.64 244.28 182.00 246.00 Z"/>
</g>
<g fill="#A3C7BB" fill-opacity="0.44" stroke="None">
<path d="
M 818.00 255.00 
C 818.96 250.86 820.00 246.92 820.00 242.00
C 819.64 245.71 818.48 250.72 818.00 255.00 Z"/>
</g>
<g fill="#8BB5A6" fill-opacity="0.54" stroke="None">
<path d="
M 328.00 260.00 
C 328.00 257.55 328.73 253.67 327.00 252.00
C 327.00 252.00 326.00 251.96 326.00 252.00
C 326.00 255.46 327.70 258.55 328.00 260.00 Z"/>
</g>
<g fill="#97BFB2" fill-opacity="0.43" stroke="None">
<path d="
M 769.00 284.00 
C 769.26 283.75 770.00 284.00 770.00 284.00
C 770.98 273.59 769.94 261.70 769.00 252.00
C 769.00 262.51 768.04 273.54 769.00 284.00 Z"/>
</g>
<g fill="#B2D6CA" fill-opacity="0.49" stroke="None">
<path d="
M 330.00 282.00 
C 329.47 277.72 328.36 272.74 328.00 269.00
C 328.00 274.19 328.68 277.72 330.00 282.00 Z"/>
</g>
<g fill="#B1D9CB" fill-opacity="0.49" stroke="None">
<path d="
M 670.00 282.00 
C 671.31 277.76 672.00 274.21 672.00 269.00
C 671.64 272.68 670.53 277.76 670.00 282.00 Z"/>
</g>
<g fill="#AACABE" fill-opacity="0.30" stroke="None">
<path d="
M 187.00 283.00 
C 186.51 280.38 185.35 277.16 185.00 275.00
C 185.18 278.40 186.11 280.27 187.00 283.00 Z"/>
</g>
<g fill="#96D4BF" fill-opacity="0.76" stroke="None">
<path d="
M 231.00 284.00 
C 231.25 286.62 230.95 289.36 231.00 292.00
C 231.00 292.04 232.00 292.00 232.00 292.00
C 231.90 289.31 230.99 283.95 231.00 284.00 Z"/>
</g>
<g fill="#97CFBF" fill-opacity="0.67" stroke="None">
<path d="
M 769.00 293.00 
C 769.09 289.87 769.73 286.83 770.00 284.00
C 770.00 284.00 769.26 283.75 769.00 284.00
C 766.48 286.44 768.84 290.58 769.00 293.00 Z"/>
</g>
<g fill="#B3DACB" fill-opacity="0.23" stroke="None">
<path d="
M 233.00 304.00 
C 232.49 299.89 232.16 296.13 232.00 292.00
C 232.00 292.00 231.00 292.04 231.00 292.00
C 231.09 296.54 232.05 300.16 233.00 304.00 Z"/>
</g>
<g fill="#ABDACA" fill-opacity="0.63" stroke="None">
<path d="
M 767.00 307.00 
C 767.52 304.28 767.52 301.75 768.00 299.00
C 767.37 300.47 766.99 303.50 767.00 307.00 Z"/>
</g>
<g fill="#9CC5B6" fill-opacity="0.38" stroke="None">
<path d="
M 145.00 320.00 
C 145.73 317.13 146.81 314.51 147.00 311.00
C 146.58 313.56 145.41 316.87 145.00 320.00 Z"/>
</g>
<g fill="#B8E6D7" fill-opacity="0.64" stroke="None">
<path d="
M 858.00 361.00 
C 858.50 355.66 858.50 349.34 858.00 344.00
C 857.99 348.55 857.99 356.37 858.00 361.00 Z"/>
</g>
<g fill="#98CBB9" fill-opacity="0.47" stroke="None">
<path d="
M 298.00 418.00 
C 289.68 409.18 280.74 400.49 272.00 392.00
C 280.11 401.22 288.52 410.06 298.00 418.00 Z"/>
</g>
<g fill="#77C2A8" fill-opacity="0.98" stroke="None">
<path d="
M 862.00 468.00 
C 856.16 477.64 847.34 486.03 838.00 492.00
C 823.27 505.49 805.31 517.24 786.00 525.00
C 782.01 527.55 779.76 527.40 776.00 528.00
C 772.23 529.29 768.82 530.04 765.00 531.00
C 763.05 531.84 762.64 533.58 759.00 534.00
C 752.84 534.71 747.14 535.77 741.00 536.00
C 738.31 536.38 734.03 537.72 731.00 538.00
C 725.35 538.53 719.41 538.52 714.00 539.00
C 709.41 539.40 704.61 539.00 700.00 539.00
C 695.00 539.00 690.00 539.00 685.00 539.00
C 682.06 539.28 677.53 539.66 674.00 540.00
C 671.18 540.27 667.76 540.27 665.00 540.00
C 626.91 540.00 578.09 549.45 558.00 584.00
C 557.89 584.36 559.01 585.79 558.22 587.23 C 557.43 588.66 555.51 589.23 555.00 590.00
C 552.16 598.09 550.19 606.45 549.00 615.00
C 549.03 623.92 548.62 635.04 549.00 645.00
C 550.12 674.23 566.86 702.60 597.00 708.00
C 600.63 708.27 607.42 708.40 612.00 708.00
C 619.18 707.37 628.36 702.16 632.25 696.25 C 636.13 690.33 643.07 681.52 641.00 674.00
C 640.01 671.85 631.78 670.94 632.00 671.00
C 613.92 669.25 597.28 663.71 582.23 652.77 C 567.18 641.83 564.67 623.16 569.00 605.00 C 573.33 586.85 587.20 577.82 605.00 574.00
C 612.52 572.39 621.97 572.91 628.00 575.00
C 650.65 579.61 667.42 596.03 689.92 603.08 C 712.43 610.12 736.41 620.51 761.00 621.00
C 772.02 620.15 786.43 620.60 797.00 620.00
C 849.19 611.53 908.17 578.90 917.00 521.00
C 917.47 517.90 918.03 516.49 919.00 514.00
C 921.51 502.68 923.00 492.09 923.00 480.00
C 923.00 472.83 923.98 464.35 924.00 458.00
C 921.89 450.60 923.10 440.74 921.78 433.22 C 920.46 425.70 919.94 417.47 917.33 410.67 C 914.72 403.87 916.95 394.63 910.00 392.00
C 897.46 420.29 882.24 444.78 862.00 468.00 Z"/>
</g>
<g fill="#77C2A8" fill-opacity="0.98" stroke="None">
<path d="
M 81.00 420.00 
C 80.73 423.47 79.73 426.14 79.00 429.00
C 77.84 437.87 76.83 447.17 76.00 456.00
C 76.02 463.29 76.02 473.78 76.00 481.00
C 79.13 514.38 87.78 550.39 110.75 574.25 C 133.72 598.11 161.20 613.78 194.00 619.00
C 198.72 618.97 202.51 619.84 208.00 620.00 C 213.49 620.16 219.26 620.45 223.00 622.00
C 224.31 622.09 224.22 621.49 225.00 621.00
C 229.81 617.99 240.07 620.32 246.00 620.00
C 269.67 618.72 292.73 608.92 314.31 601.31 C 335.88 593.69 351.51 579.83 373.00 574.00
C 379.19 572.32 387.87 572.69 394.00 574.00
C 411.50 577.75 425.91 585.23 431.02 603.98 C 436.14 622.72 431.41 638.31 419.00 652.00
C 416.08 655.22 413.93 657.40 410.00 659.00
C 398.63 663.63 386.85 666.15 375.00 670.00
C 370.72 671.39 363.10 670.18 359.00 672.00
C 358.77 672.35 359.03 673.50 359.00 674.00
C 359.88 676.53 360.48 679.01 361.00 682.00
C 363.19 694.73 374.79 706.84 388.00 708.00
C 392.60 708.40 399.49 708.26 403.00 708.00
C 410.74 706.61 418.30 704.76 424.00 699.00
C 427.85 695.11 433.28 690.33 436.00 688.00
C 445.24 676.41 450.40 660.67 451.00 645.00
C 451.39 634.79 450.20 624.92 450.00 615.00
C 449.26 577.91 422.18 556.60 389.00 548.00
C 388.53 547.98 387.33 550.43 385.92 549.06 C 384.51 547.70 383.27 547.39 382.00 547.00
C 379.59 546.26 376.13 545.58 374.00 545.00
C 361.21 543.17 348.11 540.00 335.00 540.00
C 332.18 540.27 328.76 540.27 326.00 540.00
C 322.47 539.66 317.87 539.28 315.00 539.00
C 310.00 539.00 305.00 539.00 300.00 539.00
C 295.07 539.00 289.90 539.46 285.00 539.00
C 276.20 538.17 266.00 538.17 258.00 536.00
C 251.79 535.66 244.89 534.67 239.00 533.00
C 236.96 532.74 234.41 532.00 232.00 531.00
C 200.72 522.89 179.62 502.87 154.00 486.00
C 147.52 481.73 141.81 474.29 138.00 468.00
C 132.83 462.81 128.32 456.03 123.71 450.30 C 119.09 444.56 115.16 437.62 110.77 431.23 C 106.38 424.84 103.22 417.19 99.11 410.89 C 94.99 404.60 94.01 393.63 86.00 393.00
C 85.06 402.36 81.72 410.58 81.00 420.00 Z"/>
</g>
<g fill="#9DCEB8" fill-opacity="0.42" stroke="None">
<path d="
M 382.00 408.00 
C 380.21 405.10 377.93 402.59 376.00 400.00
C 377.17 402.51 379.71 405.42 382.00 408.00 Z"/>
</g>
<g fill="#A0CBBC" fill-opacity="0.58" stroke="None">
<path d="
M 261.00 423.00 
C 260.80 422.60 261.00 422.00 261.00 422.00
C 255.21 417.05 249.86 411.63 245.00 406.00
C 247.25 409.47 254.72 422.33 261.00 423.00 Z"/>
</g>
<g fill="#95C1B3" fill-opacity="0.48" stroke="None">
<path d="
M 737.00 425.00 
C 742.46 421.89 748.45 415.36 751.00 411.00
C 747.02 415.43 741.52 421.13 737.00 425.00 Z"/>
</g>
<g fill="#9BCABA" fill-opacity="0.33" stroke="None">
<path d="
M 79.00 429.00 
C 79.73 426.14 80.73 423.47 81.00 420.00
C 80.50 422.65 79.42 425.80 79.00 429.00 Z"/>
</g>
<g fill="#9FCABC" fill-opacity="0.42" stroke="None">
<path d="
M 691.00 427.00 
C 693.67 425.15 695.57 423.08 698.00 421.00
C 696.22 421.94 693.52 424.65 691.00 427.00 Z"/>
</g>
<g fill="#8DC7B6" fill-opacity="0.42" stroke="None">
<path d="
M 261.00 423.00 
C 262.10 425.26 263.85 426.23 266.00 427.00
C 264.50 425.08 262.88 423.61 261.00 422.00
C 261.00 422.00 260.80 422.60 261.00 423.00 Z"/>
</g>
<g fill="#A3C8BB" fill-opacity="0.37" stroke="None">
<path d="
M 280.00 438.00 
C 276.06 435.30 272.02 430.36 267.00 428.00
C 269.30 431.86 275.96 436.03 280.00 438.00 Z"/>
</g>
<g fill="#9DCCBD" fill-opacity="0.46" stroke="None">
<path d="
M 433.00 466.00 
C 422.19 456.58 409.94 444.46 401.00 434.00
C 408.19 445.61 421.75 459.18 433.00 466.00 Z"/>
</g>
<g fill="#9DCBB8" fill-opacity="0.49" stroke="None">
<path d="
M 170.00 444.00 
C 170.51 445.86 171.91 443.03 169.75 441.25 C 167.60 439.46 166.24 438.50 165.00 437.00
C 166.48 439.41 168.37 441.65 170.00 444.00 Z"/>
</g>
<g fill="#A5CDBF" fill-opacity="0.55" stroke="None">
<path d="
M 568.00 466.00 
C 575.90 461.50 586.48 450.93 591.00 443.00
C 584.87 450.46 575.51 459.83 568.00 466.00 Z"/>
</g>
<g fill="#94C5B6" fill-opacity="0.46" stroke="None">
<path d="
M 183.00 459.00 
C 179.68 453.75 176.49 451.03 172.00 447.00
C 175.25 450.80 179.54 455.11 183.00 459.00 Z"/>
</g>
<g fill="#C9E4DB" fill-opacity="0.61" stroke="None">
<path d="
M 76.00 481.00 
C 76.02 473.78 76.02 463.29 76.00 456.00
C 75.26 463.85 75.26 473.15 76.00 481.00 Z"/>
</g>
<g fill="#C3EADD" fill-opacity="0.61" stroke="None">
<path d="
M 923.00 480.00 
C 923.63 473.52 924.68 465.27 924.00 458.00
C 923.98 464.35 923.00 472.83 923.00 480.00 Z"/>
</g>
<g fill="#A5CBBD" fill-opacity="0.40" stroke="None">
<path d="
M 154.00 486.00 
C 148.19 481.23 142.90 473.63 138.00 468.00
C 141.81 474.29 147.52 481.73 154.00 486.00 Z"/>
</g>
<g fill="#A2C6BB" fill-opacity="0.41" stroke="None">
<path d="
M 838.00 492.00 
C 847.34 486.03 856.16 477.64 862.00 468.00
C 854.58 476.51 846.35 484.36 838.00 492.00 Z"/>
</g>
<g fill="#9FC7BB" fill-opacity="0.34" stroke="None">
<path d="
M 790.00 481.00 
C 793.50 478.92 796.78 476.30 800.00 474.00
C 796.22 476.20 792.93 478.50 790.00 481.00 Z"/>
</g>
<g fill="#96C3B3" fill-opacity="0.31" stroke="None">
<path d="
M 456.00 490.00 
C 460.03 490.28 460.60 489.36 457.00 486.00
C 458.14 488.21 458.04 489.33 456.00 490.00 Z"/>
</g>
<g fill="#98C3B4" fill-opacity="0.31" stroke="None">
<path d="
M 544.00 490.00 
C 541.78 489.27 541.88 488.17 543.00 486.00
C 539.48 489.27 539.89 490.28 544.00 490.00 Z"/>
</g>
<g fill="#97C1B3" fill-opacity="0.68" stroke="None">
<path d="
M 249.00 499.00 
C 252.06 499.90 254.97 501.09 258.00 502.00
C 256.97 501.48 256.28 499.56 254.22 498.78 C 252.16 498.00 250.29 499.12 249.00 499.00 Z"/>
</g>
<g fill="#A4CCBF" fill-opacity="0.55" stroke="None">
<path d="
M 705.00 509.00 
C 708.44 508.51 711.65 508.59 715.00 508.00
C 711.31 507.99 708.86 507.78 705.00 509.00 Z"/>
</g>
<g fill="#A7D4C4" fill-opacity="0.56" stroke="None">
<path d="
M 302.00 510.00 
C 307.54 510.11 312.49 510.63 318.00 511.00
C 312.66 510.04 307.32 509.59 302.00 510.00 Z"/>
</g>
<g fill="#A6CDBF" fill-opacity="0.56" stroke="None">
<path d="
M 683.00 511.00 
C 688.22 510.72 692.82 510.21 698.00 510.00
C 692.97 509.61 688.11 510.17 683.00 511.00 Z"/>
</g>
<g fill="#9BC4B6" fill-opacity="0.40" stroke="None">
<path d="
M 337.00 514.00 
C 334.28 513.12 332.37 512.26 329.00 512.00
C 331.19 512.41 334.35 513.51 337.00 514.00 Z"/>
</g>
<g fill="#A3CBBB" fill-opacity="0.33" stroke="None">
<path d="
M 917.00 521.00 
C 917.64 518.88 918.44 516.53 919.00 514.00
C 918.03 516.49 917.47 517.90 917.00 521.00 Z"/>
</g>
<g fill="#AED3C7" fill-opacity="0.53" stroke="None">
<path d="
M 776.00 528.00 
C 779.76 527.40 782.01 527.55 786.00 525.00
C 782.80 526.29 779.23 526.89 776.00 528.00 Z"/>
</g>
<g fill="#A1C9BB" fill-opacity="0.37" stroke="None">
<path d="
M 239.00 533.00 
C 237.05 532.45 234.30 531.60 232.00 531.00
C 234.41 532.00 236.96 532.74 239.00 533.00 Z"/>
</g>
<g fill="#9FC5B9" fill-opacity="0.36" stroke="None">
<path d="
M 461.00 545.00 
C 454.95 540.03 449.27 535.57 443.00 531.00
C 448.31 535.91 454.64 541.15 461.00 545.00 Z"/>
</g>
<g fill="#9CBBB1" fill-opacity="0.50" stroke="None">
<path d="
M 759.00 534.00 
C 762.64 533.58 763.05 531.84 765.00 531.00
C 762.91 531.52 760.70 533.57 759.00 534.00 Z"/>
</g>
<g fill="#A7D1C3" fill-opacity="0.53" stroke="None">
<path d="
M 285.00 539.00 
C 284.81 538.92 285.19 537.08 285.00 537.00
C 275.90 536.15 267.04 536.49 258.00 536.00
C 266.00 538.17 276.20 538.17 285.00 539.00 Z"/>
</g>
<g fill="#A7C9BD" fill-opacity="0.25" stroke="None">
<path d="
M 731.00 537.00 
C 730.75 537.26 731.00 538.00 731.00 538.00
C 734.03 537.72 738.31 536.38 741.00 536.00
C 738.16 536.11 732.96 534.97 731.00 537.00 Z"/>
</g>
<g fill="#B6E0D2" fill-opacity="0.77" stroke="None">
<path d="
M 285.00 539.00 
C 289.90 539.46 295.07 539.00 300.00 539.00
C 299.96 539.00 300.00 538.00 300.00 538.00
C 294.86 538.00 289.80 537.45 285.00 537.00
C 285.19 537.08 284.81 538.92 285.00 539.00 Z"/>
</g>
<g fill="#BBDAD0" fill-opacity="0.53" stroke="None">
<path d="
M 714.00 538.00 
C 713.75 538.26 714.00 539.00 714.00 539.00
C 719.41 538.52 725.35 538.53 731.00 538.00
C 731.00 538.00 730.75 537.26 731.00 537.00
C 726.84 537.40 716.87 535.04 714.00 538.00 Z"/>
</g>
<g fill="#002312" fill-opacity="0.11" stroke="None">
<path d="
M 300.00 539.00 
C 305.00 539.00 310.00 539.00 315.00 539.00
C 315.50 539.00 316.00 539.00 316.00 539.00
C 311.36 538.55 305.39 538.00 300.00 538.00
C 300.00 538.00 299.96 539.00 300.00 539.00 Z"/>
</g>
<g fill="#001E12" fill-opacity="0.11" stroke="None">
<path d="
M 684.00 539.00 
C 684.50 539.00 685.00 539.00 685.00 539.00
C 690.00 539.00 695.00 539.00 700.00 539.00
C 699.96 539.00 700.00 538.00 700.00 538.00
C 694.60 538.00 688.72 538.54 684.00 539.00 Z"/>
</g>
<g fill="#B8E2D4" fill-opacity="0.80" stroke="None">
<path d="
M 700.00 539.00 
C 704.61 539.00 709.41 539.40 714.00 539.00
C 714.00 539.00 713.75 538.26 714.00 538.00
C 709.43 538.44 704.59 538.00 700.00 538.00
C 700.00 538.00 699.96 539.00 700.00 539.00 Z"/>
</g>
<g fill="#99C6B6" fill-opacity="0.42" stroke="None">
<path d="
M 326.00 540.00 
C 323.31 539.74 319.43 539.00 316.00 539.00
C 316.00 539.00 315.50 539.00 315.00 539.00
C 317.87 539.28 322.47 539.66 326.00 540.00 Z"/>
</g>
<g fill="#9BC9B9" fill-opacity="0.42" stroke="None">
<path d="
M 674.00 540.00 
C 677.53 539.66 682.06 539.28 685.00 539.00
C 685.00 539.00 684.50 539.00 684.00 539.00
C 680.58 539.00 676.75 539.73 674.00 540.00 Z"/>
</g>
<g fill="#A3D8C6" fill-opacity="0.70" stroke="None">
<path d="
M 335.00 540.00 
C 332.05 540.00 328.94 540.28 326.00 540.00
C 328.76 540.27 332.18 540.27 335.00 540.00 Z"/>
</g>
<g fill="#A9D1C3" fill-opacity="0.70" stroke="None">
<path d="
M 674.00 540.00 
C 671.06 540.28 667.95 540.00 665.00 540.00
C 667.76 540.27 671.18 540.27 674.00 540.00 Z"/>
</g>
<g fill="#9FC2B6" fill-opacity="0.34" stroke="None">
<path d="
M 382.00 547.00 
C 379.65 546.51 376.93 545.42 374.00 545.00
C 376.13 545.58 379.59 546.26 382.00 547.00 Z"/>
</g>
<g fill="#9ED0BC" fill-opacity="0.62" stroke="None">
<path d="
M 389.00 548.00 
C 387.09 547.51 384.34 547.49 382.00 547.00
C 383.27 547.39 384.51 547.70 385.92 549.06 C 387.33 550.43 388.53 547.98 389.00 548.00 Z"/>
</g>
<g fill="#B1D5C8" fill-opacity="0.61" stroke="None">
<path d="
M 373.00 574.00 
C 379.34 573.09 387.62 573.38 394.00 574.00
C 387.87 572.69 379.19 572.32 373.00 574.00 Z"/>
</g>
<g fill="#B6D9CD" fill-opacity="0.59" stroke="None">
<path d="
M 605.00 574.00 
C 612.38 573.29 621.01 573.58 628.00 575.00
C 621.97 572.91 612.52 572.39 605.00 574.00 Z"/>
</g>
<g fill="#A0C8BA" fill-opacity="0.58" stroke="None">
<path d="
M 555.00 590.00 
C 555.51 589.23 557.43 588.66 558.22 587.23 C 559.01 585.79 557.89 584.36 558.00 584.00
C 556.91 585.87 555.80 587.73 555.00 590.00 Z"/>
</g>
<g fill="#9CCBBD" fill-opacity="0.32" stroke="None">
<path d="
M 502.00 592.00 
C 504.19 590.22 504.94 587.51 506.00 585.00
C 505.15 586.48 503.06 590.74 502.00 592.00 Z"/>
</g>
<g fill="#A1D5C3" fill-opacity="0.44" stroke="None">
<path d="
M 451.00 645.00 
C 452.42 635.09 450.93 624.64 450.00 615.00
C 450.20 624.92 451.39 634.79 451.00 645.00 Z"/>
</g>
<g fill="#9ED1C0" fill-opacity="0.45" stroke="None">
<path d="
M 549.00 645.00 
C 548.62 635.04 549.03 623.92 549.00 615.00
C 547.64 624.75 547.66 635.64 549.00 645.00 Z"/>
</g>
<g fill="#92B9AC" fill-opacity="0.73" stroke="None">
<path d="
M 515.00 626.00 
C 515.00 625.96 516.00 626.00 516.00 626.00
C 516.21 622.21 517.11 619.49 518.00 616.00
C 516.55 619.61 515.18 621.25 515.00 626.00 Z"/>
</g>
<g fill="#9BC9B9" fill-opacity="0.59" stroke="None">
<path d="
M 194.00 619.00 
C 203.36 620.49 213.45 621.37 223.00 622.00
C 219.26 620.45 213.49 620.16 208.00 620.00 C 202.51 619.84 198.72 618.97 194.00 619.00 Z"/>
</g>
<g fill="#9CCFBE" fill-opacity="0.71" stroke="None">
<path d="
M 761.00 621.00 
C 772.78 621.24 785.98 621.79 797.00 620.00
C 786.43 620.60 772.02 620.15 761.00 621.00 Z"/>
</g>
<g fill="#9BC7B9" fill-opacity="0.60" stroke="None">
<path d="
M 225.00 621.00 
C 231.26 619.39 240.01 620.97 246.00 620.00
C 240.07 620.32 229.81 617.99 225.00 621.00 Z"/>
</g>
<g fill="#9EC7BA" fill-opacity="0.31" stroke="None">
<path d="
M 485.00 634.00 
C 485.03 631.01 484.66 625.44 484.00 622.00
C 484.31 625.91 484.68 630.70 485.00 634.00 Z"/>
</g>
<g fill="#9AC3B5" fill-opacity="0.28" stroke="None">
<path d="
M 516.00 658.00 
C 515.43 647.55 515.43 636.45 516.00 626.00
C 516.00 626.00 515.00 625.96 515.00 626.00
C 514.60 636.45 514.42 648.29 516.00 658.00 Z"/>
</g>
<g fill="#9DC7B8" fill-opacity="0.36" stroke="None">
<path d="
M 410.00 659.00 
C 413.93 657.40 416.08 655.22 419.00 652.00
C 416.42 654.25 412.76 657.32 410.00 659.00 Z"/>
</g>
<g fill="#ACD7C9" fill-opacity="0.45" stroke="None">
<path d="
M 359.00 672.00 
C 363.10 670.18 370.72 671.39 375.00 670.00
C 371.85 670.40 360.63 669.49 359.00 672.00 Z"/>
</g>
<g fill="#A1C9BA" fill-opacity="0.58" stroke="None">
<path d="
M 520.00 679.00 
C 519.15 676.30 519.58 673.77 519.00 671.00
C 519.00 671.14 516.35 672.86 518.01 674.99 C 519.67 677.13 518.96 677.05 520.00 679.00 Z"/>
</g>
<g fill="#BAE2D5" fill-opacity="0.50" stroke="None">
<path d="
M 641.00 674.00 
C 641.00 673.00 641.00 672.00 641.00 671.00
C 638.02 670.78 634.97 671.29 632.00 671.00
C 631.78 670.94 640.01 671.85 641.00 674.00 Z"/>
</g>
<g fill="#AADDCA" fill-opacity="0.44" stroke="None">
<path d="
M 361.00 682.00 
C 360.48 679.01 359.88 676.53 359.00 674.00
C 358.74 677.73 360.09 679.19 361.00 682.00 Z"/>
</g>
<g fill="#9ECEBE" fill-opacity="0.47" stroke="None">
<path d="
M 424.00 699.00 
C 428.97 695.41 432.05 692.96 436.00 688.00
C 433.28 690.33 427.85 695.11 424.00 699.00 Z"/>
</g>
<g fill="#A2C3B7" fill-opacity="0.35" stroke="None">
<path d="
M 388.00 708.00 
C 392.82 708.98 398.13 708.87 403.00 708.00
C 399.49 708.26 392.60 708.40 388.00 708.00 Z"/>
</g>
<g fill="#A1C1B5" fill-opacity="0.35" stroke="None">
<path d="
M 597.00 708.00 
C 601.80 708.86 607.12 708.99 612.00 708.00
C 607.42 708.40 600.63 708.27 597.00 708.00 Z"/>
</g>
<g fill="#000000" fill-opacity="0.00" stroke="None">
<path d="
M 477.00 744.00 
C 473.23 747.35 470.04 750.34 466.00 753.00
C 458.29 758.08 451.24 762.86 443.00 767.00
C 447.16 767.65 454.58 769.62 461.00 769.00
C 470.23 767.02 478.36 764.33 486.00 758.00
C 490.45 754.31 495.23 749.62 499.00 745.00
C 504.82 747.59 508.95 754.37 514.00 758.00
C 521.59 764.30 529.74 767.02 539.00 769.00
C 545.31 769.61 553.01 767.41 557.00 767.00
C 544.59 761.61 533.74 752.73 523.25 744.75 C 512.75 736.78 504.96 724.53 499.00 714.00
C 495.90 725.58 486.97 737.83 477.00 744.00 Z"/>
</g>
<g fill="#BFDFD4" fill-opacity="0.69" stroke="None">
<path d="
M 382.00 724.00 
C 379.17 723.73 375.83 723.73 373.00 724.00
C 374.92 724.01 380.01 724.01 382.00 724.00 Z"/>
</g>
<g fill="#BEE5D8" fill-opacity="0.68" stroke="None">
<path d="
M 628.00 725.00 
C 625.24 724.67 621.53 723.67 618.00 724.00
C 620.32 724.01 624.87 724.94 628.00 725.00 Z"/>
</g>
<g fill="#93B8B5" fill-opacity="0.06" stroke="None">
<path d="
M 429.00 731.00 
C 423.97 731.62 418.06 731.28 413.00 731.00
C 418.02 731.82 423.87 732.27 429.00 731.00 Z"/>
</g>
<g fill="#9DB7B1" fill-opacity="0.06" stroke="None">
<path d="
M 587.00 731.00 
C 582.20 731.26 576.78 731.49 572.00 731.00
C 576.83 732.07 582.14 731.79 587.00 731.00 Z"/>
</g>
<g fill="#A4D0BF" fill-opacity="0.38" stroke="None">
<path d="
M 466.00 753.00 
C 470.04 750.34 473.23 747.35 477.00 744.00
C 472.88 746.55 469.77 749.72 466.00 753.00 Z"/>
</g>
<g fill="#ABCCC1" fill-opacity="0.45" stroke="None">
<path d="
M 486.00 758.00 
C 492.45 756.98 495.06 748.84 501.00 747.00
C 504.08 752.12 509.27 755.22 514.00 758.00
C 508.95 754.37 504.82 747.59 499.00 745.00
C 495.23 749.62 490.45 754.31 486.00 758.00 Z"/>
</g>
<g fill="#A2CCBE" fill-opacity="0.57" stroke="None">
<path d="
M 461.00 769.00 
C 454.58 769.62 447.16 767.65 443.00 767.00
C 442.25 765.09 440.52 768.17 440.00 769.00
C 446.53 770.77 454.81 770.33 461.00 769.00 Z"/>
</g>
<g fill="#9AC9B9" fill-opacity="0.55" stroke="None">
<path d="
M 557.00 767.00 
C 553.01 767.41 545.31 769.61 539.00 769.00
C 542.55 769.76 562.95 770.89 557.00 767.00 Z"/>
</g>
<g fill="#000000" fill-opacity="0.00" stroke="None">
<path d="
M 499.00 864.00 
C 499.88 863.32 500.15 864.09 501.00 863.00
C 507.75 854.37 509.93 841.54 517.08 833.08 C 524.22 824.61 528.93 813.21 536.00 806.00
C 537.02 803.55 536.20 802.24 534.00 801.00
C 520.52 797.42 508.93 788.60 501.00 777.00
C 489.93 787.24 478.77 797.92 463.00 803.00
C 469.13 813.15 476.87 822.61 482.25 832.75 C 487.63 842.89 497.41 852.25 499.00 864.00 Z"/>
</g>
<g fill="#9ED3BF" fill-opacity="0.65" stroke="None">
<path d="
M 534.00 801.00 
C 536.20 802.24 537.02 803.55 536.00 806.00
C 540.33 801.58 538.52 801.63 534.00 801.00 Z"/>
</g>
<g fill="#97C0B1" fill-opacity="0.42" stroke="None">
<path d="
M 544.00 851.00 
C 545.99 848.14 548.18 845.03 550.00 842.00
C 547.35 845.07 545.74 847.32 544.00 851.00 Z"/>
</g>
<g fill="#ABDECD" fill-opacity="0.82" stroke="None">
<path d="
M 499.00 864.00 
C 497.16 865.76 499.17 870.09 500.00 872.00
C 500.76 869.21 500.63 864.78 501.00 863.00
C 500.15 864.09 499.88 863.32 499.00 864.00 Z"/>
</g>
</svg>